<?xml version="1.0" standalone="no"?>
<!DOCTYPE svg PUBLIC "-//W3C//DTD SVG 1.1//EN" "http://www.w3.org/Graphics/SVG/1.1/DTD/svg11.dtd" >
<svg xmlns="http://www.w3.org/2000/svg">
<metadata></metadata>
<defs>
<font id="FNBSansRegularRegular" horiz-adv-x="1269" >
<font-face units-per-em="2048" ascent="1536" descent="-512" />
<missing-glyph horiz-adv-x="382" />
<glyph unicode="&#xfb01;" horiz-adv-x="1130" d="M66 1042q0 40 14.5 58t50.5 18h82v66q0 172 99 270t270 98q216 0 331 -129q48 -51 -6 -102q-32 -29 -56 -31t-52 27q-72 82 -203 82q-102 0 -151.5 -52t-49.5 -173v-56h465q64 0 94.5 -25t30.5 -85v-940q0 -43 -22 -61.5t-68 -18.5q-47 0 -69.5 18.5t-22.5 61.5v901h-408 v-901q0 -43 -22 -61.5t-68 -18.5q-47 0 -69 18.5t-21 61.5l-2 901h-82q-35 0 -50 18t-15 55z" />
<glyph unicode="&#xfb02;" horiz-adv-x="1134" d="M66 1042q0 40 14.5 58t50.5 18h82v84q0 155 111.5 256t277.5 101q178 0 316 -93q39 -26 53 -53t14 -74l2 -1271q0 -43 -23 -61.5t-69 -18.5q-47 0 -69.5 18.5t-22.5 61.5v1271q-74 70 -201 70q-106 0 -156.5 -62.5t-50.5 -150.5v-78h162q36 0 51 -18.5t15 -57.5 q0 -37 -15 -55t-51 -18h-160v-901q0 -43 -23 -61.5t-69 -18.5q-48 0 -70.5 18.5t-21.5 61.5v901h-82q-35 0 -50 18t-15 55z" />
<glyph horiz-adv-x="0" />
<glyph horiz-adv-x="2048" />
<glyph unicode=" "  horiz-adv-x="382" />
<glyph unicode="&#x09;" horiz-adv-x="382" />
<glyph unicode="&#xa0;" horiz-adv-x="382" />
<glyph unicode="!" horiz-adv-x="546" d="M186 1446q-1 42 20.5 60t67.5 18q91 0 88 -78l-20 -940q0 -62 -68 -62q-34 0 -50.5 14.5t-16.5 47.5zM188 66v102q0 40 21 58t65 18q86 0 86 -76v-102q0 -76 -86 -76q-44 0 -65 17t-21 59z" />
<glyph unicode="&#x22;" horiz-adv-x="716" d="M104 1446q-3 78 89 78q91 0 88 -78l-21 -440q0 -62 -67 -62q-68 0 -68 62zM436 1446q-1 42 20.5 60t67.5 18q91 0 88 -78l-20 -440q0 -62 -68 -62q-34 0 -50.5 14.5t-16.5 47.5z" />
<glyph unicode="#" d="M47 539q9 67 70 67h182l68 316h-174q-60 0 -48 67q9 68 70 68h182l86 395q12 57 86 57q81 0 66 -79l-80 -373h303l84 395q12 57 86 57q85 0 66 -79l-82 -373h166q32 0 42.5 -16.5t4.5 -51.5q-9 -67 -70 -67h-174l-68 -316h166q32 0 42.5 -16t4.5 -51q-9 -68 -69 -68h-174 l-88 -420q-12 -57 -86 -57q-82 0 -66 80l86 397h-303l-90 -420q-12 -57 -86 -57q-82 0 -66 80l86 397h-176q-32 0 -42.5 16.5t-4.5 51.5zM455 606h303l67 316h-305z" />
<glyph unicode="$" d="M150 336q-13 41 1.5 64.5t59.5 37.5q41 15 69 5t42 -52q29 -84 109 -142.5t200 -58.5q139 0 211.5 60t72.5 166q0 30 -8.5 55.5t-20 45.5t-37.5 40.5t-46.5 34t-62.5 33t-70.5 31.5t-83.5 34q-80 32 -133.5 57t-107.5 61t-85 75t-50.5 93t-19.5 120q0 138 94.5 235.5 t250.5 122.5v129q0 45 22.5 63.5t71.5 18.5q48 0 72 -19t24 -63v-131q135 -14 233.5 -88t135.5 -168q28 -75 -62 -102q-41 -14 -65.5 -4.5t-44.5 51.5q-33 73 -105.5 118.5t-179.5 45.5q-120 0 -189 -55.5t-69 -139.5q0 -28 7 -51.5t17 -42.5t33.5 -38t44 -33t61 -33.5 t73 -33.5t90.5 -38q102 -41 165.5 -74t123 -81t87 -109.5t27.5 -141.5q0 -156 -108 -261t-275 -132v-131q0 -44 -24 -63t-72 -19q-49 0 -71.5 18.5t-22.5 63.5v129q-135 15 -241 99.5t-144 197.5z" />
<glyph unicode="%" horiz-adv-x="1525" d="M90 1006v290q0 115 75 174.5t200 59.5t200.5 -59.5t75.5 -174.5v-290q0 -114 -75 -172t-201 -58t-200.5 58t-74.5 172zM242 1006q0 -107 123 -107q124 0 124 107v290q0 56 -33.5 82.5t-90.5 26.5q-56 0 -89.5 -27.5t-33.5 -83.5v-288zM300.5 12q-16.5 22 2.5 60l758 1398 q25 48 86 48q45 0 61.5 -22t-2.5 -60l-757 -1399q-24 -47 -87 -47q-45 0 -61.5 22zM893 211v295q0 115 75 176t199 61t199.5 -61t75.5 -176v-295q0 -114 -75.5 -172.5t-201.5 -58.5q-125 0 -198.5 58t-73.5 173zM1042 211q0 -109 123 -109q56 0 89.5 26.5t33.5 82.5v295 q0 58 -33 86.5t-90 28.5t-90 -28.5t-33 -86.5v-295z" />
<glyph unicode="&#x26;" horiz-adv-x="1310" d="M68 377q0 78 19.5 140.5t63 117.5t95.5 100t135 103q-117 131 -161 208.5t-44 165.5q0 136 100.5 227t253.5 91q159 0 256 -92t97 -230q0 -52 -13.5 -97.5t-34 -80.5t-59 -75t-72 -68.5t-90.5 -71.5l322 -373q22 67 22 195v16q0 43 22 60.5t69 17.5q46 0 68 -17.5 t22 -60.5v-20q0 -197 -80 -336l182 -207q32 -34 11 -68t-87 -34q-57 0 -92 41l-115 131q-90 -97 -188 -141t-231 -44q-220 0 -345.5 113t-125.5 289zM254 387q0 -109 78.5 -182.5t208.5 -73.5q203 0 307 162l-367 426q-127 -92 -177 -161t-50 -171zM354 1204q0 -28 8 -55.5 t16 -46t35 -54.5t40.5 -52t58.5 -68q56 41 85 64.5t57.5 56.5t39.5 67.5t11 79.5q0 84 -46 132t-129 48q-82 0 -129 -46.5t-47 -125.5z" />
<glyph unicode="'" horiz-adv-x="368" d="M104 1446q-3 78 89 78q91 0 88 -78l-21 -440q0 -62 -67 -62q-68 0 -68 62z" />
<glyph unicode="(" horiz-adv-x="712" d="M131 662q0 139 27 276.5t71.5 247t89.5 191.5t91 141q45 59 108 8q67 -52 23 -109q-89 -122 -157 -323t-69 -430q0 -231 68 -433.5t158 -324.5q44 -57 -23 -109q-63 -51 -108 8q-46 59 -91 141.5t-89.5 192t-71.5 247t-27 276.5z" />
<glyph unicode=")" horiz-adv-x="712" d="M172 -94q89 121 156.5 322.5t68.5 430.5q0 231 -67.5 433.5t-157.5 324.5q-44 57 23 109q63 51 108 -8q46 -59 91 -141t89.5 -191.5t71.5 -247t27 -276.5t-27 -276.5t-71.5 -247t-89.5 -192t-91 -141.5q-45 -59 -108 -8q-67 52 -23 109z" />
<glyph unicode="*" horiz-adv-x="794" d="M74 1288q24 81 86 53l186 -88l-20 213q-3 36 15 51t58 15q39 0 59.5 -15.5t16.5 -50.5l-26 -213l186 88q62 28 86 -53q25 -76 -41 -90l-197 -45l142 -158q43 -49 -19 -98q-64 -54 -98 4l-111 191l-110 -191q-34 -59 -99 -4q-62 49 -18 98l141 158l-196 45q-66 14 -41 90z " />
<glyph unicode="+" d="M109 633q0 80 65 80h377v374q0 40 20 57t64 17q84 0 84 -74v-374h379q63 0 63 -80q0 -40 -14.5 -59t-48.5 -19h-379v-385q0 -72 -84 -72q-44 0 -64 16.5t-20 55.5v385h-377q-36 0 -50.5 19t-14.5 59z" />
<glyph unicode="," horiz-adv-x="417" d="M34 -184q0 17 21 37q60 54 78.5 130t16.5 230q0 42 21.5 60t66.5 18q88 0 88 -78q0 -133 -51.5 -254.5t-145.5 -194.5q-39 -32 -76 11q-19 24 -19 41z" />
<glyph unicode="-" horiz-adv-x="935" d="M111 614q0 74 63 74h590q61 0 61 -74q0 -38 -14 -55.5t-47 -17.5h-590q-34 0 -48.5 17.5t-14.5 55.5z" />
<glyph unicode="." horiz-adv-x="423" d="M123 68v143q0 42 22 60t68 18q88 0 88 -78v-143q0 -42 -22 -60t-66 -18q-46 0 -68 17.5t-22 60.5z" />
<glyph unicode="/" horiz-adv-x="786" d="M18 72l580 1380q26 64 94 64q44 0 64.5 -24.5t5.5 -61.5l-580 -1381q-26 -63 -94 -63q-44 0 -64.5 24.5t-5.5 61.5z" />
<glyph unicode="0" d="M141 451v591q0 231 122 353.5t372 122.5t371.5 -121t121.5 -350v-596q0 -228 -122 -351t-371 -123q-250 0 -372 121.5t-122 352.5zM330 465q0 -158 73 -239t232 -81q164 0 234.5 78.5t70.5 241.5v563q0 160 -71 241t-234 81q-159 0 -232 -82t-73 -240v-563z" />
<glyph unicode="1" d="M246 1249q-9 71 57 82q207 39 266 74q17 10 31.5 28t24 32t30 25t50.5 11q39 0 57 -14.5t18 -48.5v-1272h238q37 0 52 -21t15 -63q0 -43 -15 -62.5t-52 -19.5h-664q-39 0 -55 20t-16 62q0 84 71 84h238v1053l-275 -35q-34 -4 -50 11.5t-21 53.5z" />
<glyph unicode="2" d="M135 106v39q0 110 20 189.5t72.5 154.5t143.5 139t233 130q133 62 202 114t92.5 101.5t23.5 122.5q0 112 -71.5 183t-199.5 71q-109 0 -187 -49.5t-110 -139.5q-14 -42 -41.5 -52t-68.5 5q-90 27 -62 103q51 142 169 221.5t298 79.5q224 0 343.5 -119t119.5 -305 q0 -169 -90.5 -272.5t-327.5 -213.5q-121 -57 -192.5 -101.5t-109.5 -92t-49 -91t-11 -112.5v-45h706q39 0 55.5 -20t16.5 -62q0 -43 -16.5 -63.5t-55.5 -20.5h-762q-74 0 -107.5 23.5t-33.5 82.5z" />
<glyph unicode="3" d="M129 283q-15 40 0.5 64t60.5 38q41 15 67.5 5t43.5 -52q32 -86 114 -139.5t199 -53.5q133 0 216 69.5t83 195.5v18q0 127 -78.5 199.5t-220.5 72.5h-57q-37 0 -52.5 19.5t-15.5 60.5t15.5 59.5t52.5 18.5h61q116 0 189.5 65t73.5 167v28q0 114 -67 173t-193 59 q-109 0 -173.5 -43.5t-105.5 -135.5q-14 -41 -39.5 -49t-64.5 8q-44 16 -58.5 37.5t0.5 59.5q52 137 166 214t275 77q219 0 333.5 -103.5t114.5 -288.5v-30q0 -112 -69.5 -201t-170.5 -113q115 -23 195 -109.5t80 -236.5v-26q0 -127 -65 -226.5t-175.5 -153t-245.5 -53.5 q-101 0 -186.5 26.5t-144.5 72t-98 97.5t-60 110z" />
<glyph unicode="4" d="M114 504.5q2 24.5 21 50.5l664 922q47 63 119 0q34 -28 39 -53.5t-21 -61.5l-588 -819h410v235q0 45 22 63.5t70 18.5t71 -19t23 -63v-235h141q39 0 55.5 -20t16.5 -62q0 -43 -16.5 -63.5t-55.5 -20.5h-141v-307q0 -44 -23 -63t-71 -19t-70 18.5t-22 63.5v307h-551 q-34 0 -53 17t-33 57q-9 29 -7 53.5z" />
<glyph unicode="5" d="M160 281q-15 40 0.5 64t60.5 38q41 15 67.5 5t43.5 -52q33 -87 107.5 -139t191.5 -52q140 0 218.5 86.5t78.5 239.5v41q0 154 -71.5 233.5t-209.5 79.5q-79 0 -134.5 -29.5t-123.5 -93.5q-46 -43 -110 -24q-40 19 -56.5 38t-13.5 52l43 623q4 59 36 82.5t105 23.5h563 q39 0 55.5 -20t16.5 -62q0 -43 -16.5 -63.5t-55.5 -20.5h-534l-35 -477l4 -2q54 60 126.5 95.5t189.5 35.5q188 0 299.5 -121t111.5 -348v-49q0 -230 -132.5 -359t-352.5 -129q-98 0 -181 26.5t-139.5 71t-94 96t-58.5 110.5z" />
<glyph unicode="6" d="M141 469v494q0 260 135 407.5t381 147.5q94 0 172 -25t130 -66.5t85 -86t52 -93.5q16 -38 1.5 -59.5t-55.5 -38.5q-48 -19 -73.5 -9t-46.5 54q-33 70 -100 113t-165 43q-161 0 -243.5 -93.5t-83.5 -293.5v-144l4 -2q45 73 137.5 119.5t210.5 46.5q207 0 332 -124.5 t125 -342.5v-67q0 -209 -138.5 -340.5t-347.5 -131.5q-244 0 -378 136t-134 356zM332 463q0 -142 83 -230t240 -88q131 0 213 88.5t82 229.5v41q0 151 -75 236t-213 85q-147 0 -238.5 -88t-91.5 -235v-39z" />
<glyph unicode="7" d="M180 1415q0 42 16.5 62t55.5 20h733q35 0 54.5 -17.5t31.5 -56.5q10 -30 7 -53t-21 -51q-97 -144 -183.5 -296t-165.5 -321t-126 -335t-47 -297q0 -82 -97 -82q-49 0 -71.5 18.5t-22.5 63.5q0 137 47 307t126.5 340t166 321t182.5 293h-614q-39 0 -55.5 20.5t-16.5 63.5z " />
<glyph unicode="8" d="M121 393v45q0 140 70 227.5t202 137.5q-96 31 -158.5 109.5t-62.5 205.5v33q0 174 120.5 270.5t342.5 96.5t343.5 -96.5t121.5 -270.5v-33q0 -127 -62.5 -205.5t-160.5 -109.5q133 -50 203.5 -137.5t70.5 -227.5v-45q0 -194 -138 -305t-378 -111t-377 110.5t-137 305.5z M309 412q0 -131 83 -200t243 -69t243 69t83 200v32q0 133 -83 202t-243 69q-159 0 -242.5 -69t-83.5 -202v-32zM356 1102q0 -111 74.5 -170.5t204.5 -59.5q131 0 205.5 59.5t74.5 170.5v33q0 223 -280 223q-279 0 -279 -223v-33z" />
<glyph unicode="9" d="M119 985v59q0 131 58 238t173 171.5t268 64.5q227 0 361.5 -131.5t134.5 -354.5v-526q0 -136 -41 -240.5t-112 -166t-158.5 -92t-188.5 -30.5q-153 0 -269 55.5t-175 149.5q-17 23 -14 44t14.5 35t34.5 30q43 29 69 24t56 -45q90 -125 278 -125q69 0 124 18t99.5 56 t68.5 104.5t24 157.5v176q-47 -75 -136.5 -117t-201.5 -42q-215 0 -341 134.5t-126 352.5zM309 987q0 -153 77 -242.5t226 -89.5q142 0 227 84t85 222v63q0 155 -80.5 240.5t-225.5 85.5q-142 0 -225.5 -83t-83.5 -233v-47z" />
<glyph unicode=":" horiz-adv-x="434" d="M125 68v143q0 42 22 60t68 18q88 0 88 -78v-143q0 -42 -22 -60t-66 -18q-46 0 -68 17.5t-22 60.5zM125 909v144q0 42 22 59.5t68 17.5q88 0 88 -77v-144q0 -42 -22 -60t-66 -18q-46 0 -68 17.5t-22 60.5z" />
<glyph unicode=";" horiz-adv-x="442" d="M24 -184q0 17 21 37q60 54 78 130t16 230q0 42 21.5 60t66.5 18q88 0 88 -78q0 -133 -51 -254.5t-145 -194.5q-39 -32 -76 11q-19 24 -19 41zM137 909v144q0 42 22 59.5t68 17.5q88 0 88 -77v-144q0 -42 -22 -60t-66 -18q-46 0 -68 17.5t-22 60.5z" />
<glyph unicode="&#x3c;" horiz-adv-x="1277" d="M205 629q0 42 12.5 65.5t46.5 34.5l641 227q41 14 63.5 -3.5t22.5 -63.5q0 -73 -61 -92l-518 -164l518 -164q61 -19 61 -92q0 -46 -22.5 -63.5t-63.5 -4.5l-639 223q-36 13 -48.5 34.5t-12.5 62.5z" />
<glyph unicode="=" horiz-adv-x="1009" d="M92 477q0 78 66 78h696q64 0 64 -78q0 -39 -15 -57.5t-49 -18.5h-696q-36 0 -51 18.5t-15 57.5zM92 788q0 78 66 78h696q64 0 64 -78q0 -39 -14.5 -57t-49.5 -18h-696q-36 0 -51 18t-15 57z" />
<glyph unicode="&#x3e;" horiz-adv-x="1277" d="M205 377q0 73 61 92l518 164l-518 164q-61 19 -61 92q0 46 22.5 63.5t63.5 3.5l641 -227q34 -11 46.5 -34.5t12.5 -65.5q0 -41 -12.5 -62.5t-48.5 -34.5l-639 -223q-41 -13 -63.5 4.5t-22.5 63.5z" />
<glyph unicode="?" horiz-adv-x="858" d="M37 1332q-3 21 22 50q147 154 353 154q179 0 281 -104.5t102 -260.5q0 -58 -19 -112t-49 -96t-66.5 -83t-73 -80t-66.5 -78.5t-49 -87.5t-19 -99v-27q0 -39 -20.5 -55.5t-61.5 -16.5q-43 0 -62.5 15.5t-19.5 54.5v37q0 68 24 131t60 108.5t78.5 94t78.5 88.5t60 90.5 t24 101.5q0 101 -56 160t-167 59q-126 0 -219 -100q-47 -49 -102 6q-30 29 -33 50zM285 66v102q0 40 21 58t65 18q86 0 86 -76v-102q0 -76 -86 -76q-44 0 -65 17t-21 59z" />
<glyph unicode="@" horiz-adv-x="1726" d="M131 455v284q0 96 28.5 187t89 173t147 144t211 98.5t272.5 36.5q157 0 282 -32t205 -86t133.5 -128.5t75.5 -154.5t22 -170v-315q0 -69 -16 -127t-49.5 -105t-91 -73.5t-133.5 -26.5q-45 0 -84.5 11.5t-64 28t-42 33t-24.5 27.5l-7 12q-110 -120 -280 -120 q-112 0 -195.5 71t-83.5 187v24q0 71 26 121.5t85 86.5t160.5 51t246.5 9v27q0 205 -188 205q-123 0 -174 -111q-13 -28 -33 -33t-49 9q-63 28 -39 78q89 180 303 180q167 0 247.5 -87.5t80.5 -248.5v-326q0 -47 32.5 -83t90.5 -36q64 0 104.5 49.5t40.5 135.5v332 q0 72 -17.5 135.5t-59.5 122.5t-106.5 101t-166 67.5t-229.5 25.5q-157 0 -275.5 -43.5t-187 -118.5t-102 -167t-33.5 -199v-244q0 -108 33 -199.5t98.5 -164.5t174.5 -114.5t251 -41.5q216 0 415 74q57 20 76 -43q11 -30 4 -50t-37 -30q-235 -84 -458 -84q-161 0 -288 42 t-204 107t-127.5 151.5t-70 168.5t-19.5 166zM672 416q0 -62 43 -101t114 -39q135 0 213 107v207q-115 4 -190.5 -6t-113.5 -33.5t-52 -52t-14 -70.5v-12z" />
<glyph unicode="A" horiz-adv-x="1175" d="M35 84l436 1348q14 45 42 61t79 16q52 0 82 -16t43 -57l420 -1348q6 -20 6 -37q1 -22 -11 -37q-20 -26 -75 -26q-85 0 -107 71l-112 377h-508l-113 -379q-21 -69 -104 -69q-51 0 -71 25q-12 15 -13 37q0 15 6 34zM379 594h414l-201 684z" />
<glyph unicode="B" horiz-adv-x="1202" d="M162 106v1285q0 58 35 82t110 24h334q204 0 315 -98t111 -266v-46q0 -115 -61 -201t-160 -112q113 -19 188.5 -112t75.5 -228v-45q0 -173 -117.5 -281t-330.5 -108h-355q-75 0 -110 24t-35 82zM352 166h262q156 0 230 59t74 211q-1 124 -75 190t-210 66h-281v-526z M352 846h258q122 0 193 58.5t71 170.5v29q0 231 -288 231h-234v-489z" />
<glyph unicode="C" horiz-adv-x="1198" d="M141 467v561q0 226 137.5 358t376.5 132q180 0 295.5 -79.5t167.5 -221.5q7 -18 7 -34q0 -49 -68 -69q-25 -9 -45 -9q-13 0 -24 4q-28 10 -42 52q-32 91 -108 140t-185 49q-150 0 -235.5 -86t-85.5 -246v-537q0 -158 79 -247t240 -89q110 0 184 52t107 139q18 42 44 52 q11 4 23 4q19 0 44 -9q45 -14 61 -38q8 -12 7 -29q0 -16 -7 -35q-21 -58 -59 -110t-94 -96.5t-137 -71t-175 -26.5q-256 0 -382 125.5t-126 364.5z" />
<glyph unicode="D" horiz-adv-x="1306" d="M162 106v1285q0 58 35 82t110 24h361q238 0 366.5 -135t128.5 -354v-527q0 -213 -129 -347t-366 -134h-361q-75 0 -110 24t-35 82zM352 166h281q342 0 342 340v481q0 161 -82.5 252.5t-259.5 91.5h-281v-1165z" />
<glyph unicode="E" horiz-adv-x="1052" d="M162 106v1285q0 59 33.5 82.5t107.5 23.5h590q39 0 55.5 -20t16.5 -62q0 -43 -16.5 -63.5t-55.5 -20.5h-541v-483h488q39 0 55 -20t16 -62q0 -43 -16 -63.5t-55 -20.5h-488v-516h539q39 0 55.5 -20t16.5 -62q0 -43 -16.5 -63.5t-55.5 -20.5h-588q-74 0 -107.5 23.5 t-33.5 82.5z" />
<glyph unicode="F" horiz-adv-x="983" d="M162 70v1321q0 59 33.5 82.5t107.5 23.5h563q39 0 55.5 -20t16.5 -62q0 -43 -16.5 -63.5t-55.5 -20.5h-514v-520h467q70 0 70 -82t-70 -82h-467v-577q0 -44 -24 -63t-72 -19q-49 0 -71.5 18.5t-22.5 63.5z" />
<glyph unicode="G" horiz-adv-x="1298" d="M141 455v571q0 236 142 364t387 128q376 0 491 -306q7 -20 7 -35q0 -17 -8 -29q-15 -24 -60 -38q-25 -9 -44 -9q-13 0 -24 4q-26 10 -43 52q-73 193 -313 193q-169 0 -256.5 -81.5t-87.5 -267.5v-528q0 -173 91 -250.5t247 -77.5q51 0 96.5 9t90.5 31.5t77 57t52 90 t20 126.5v170h-258q-66 0 -66 76q0 73 66 73h303q74 0 107.5 -23.5t33.5 -82.5v-228q0 -212 -146.5 -339.5t-383.5 -127.5q-248 0 -384.5 125.5t-136.5 352.5z" />
<glyph unicode="H" horiz-adv-x="1380" d="M162 70v1357q0 45 22.5 63.5t71.5 18.5q48 0 72 -19t24 -63v-589h678v589q0 44 24 63t72 19q49 0 72 -18.5t23 -63.5v-1357q0 -45 -23 -63.5t-72 -18.5q-48 0 -72 19t-24 63v600h-678v-600q0 -44 -24 -63t-72 -19q-49 0 -71.5 18.5t-22.5 63.5z" />
<glyph unicode="I" horiz-adv-x="534" d="M172 70v1357q0 45 22.5 63.5t71.5 18.5q48 0 72 -19t24 -63v-1357q0 -44 -24 -63t-72 -19q-49 0 -71.5 18.5t-22.5 63.5z" />
<glyph unicode="J" horiz-adv-x="897" d="M49 111q-26 24 -26 52q0 30 28 66q31 40 65 40q26 0 54 -23q35 -27 58.5 -42.5t63.5 -30.5t79 -15q100 0 153.5 60.5t53.5 178.5v1030q0 45 22.5 63.5t71.5 18.5q48 0 72 -19t24 -63v-1015q0 -217 -103 -326t-290 -109q-102 0 -179 35.5t-147 98.5z" />
<glyph unicode="K" horiz-adv-x="1157" d="M162 70v1357q0 45 22.5 63.5t71.5 18.5q48 0 72 -19t24 -63v-643l563 693q25 32 82 32q65 -1 87 -37q9 -14 9 -28q0 -24 -22 -49l-420 -510l443 -787q14 -21 14 -41q0 -19 -12 -35q-24 -34 -90 -34q-72 0 -101 53l-381 707l-172 -211v-467q0 -44 -24 -63t-72 -19 q-49 0 -71.5 18.5t-22.5 63.5z" />
<glyph unicode="L" horiz-adv-x="1005" d="M162 82v1345q0 45 22.5 63.5t71.5 18.5q48 0 72 -19t24 -63v-1261h580q39 0 55.5 -20t16.5 -62q0 -43 -16.5 -63.5t-55.5 -20.5h-676q-49 0 -71.5 18.5t-22.5 63.5z" />
<glyph unicode="M" horiz-adv-x="1628" d="M162 70v1337q0 54 34.5 78t108.5 24q62 0 99 -19.5t53 -70.5l227 -755q74 -245 129 -488h4q47 223 129 488l232 757q14 50 50.5 69t96.5 19q72 0 106.5 -23.5t34.5 -76.5v-1339q0 -76 -90 -76q-44 0 -65 18t-21 58v833q0 246 10 387h-4l-374 -1233q-21 -63 -115 -63 q-46 0 -73 14t-38 53l-366 1227h-4q10 -218 10 -385v-833q0 -76 -88 -76q-44 0 -65 18t-21 58z" />
<glyph unicode="N" horiz-adv-x="1394" d="M162 74v1333q0 54 34.5 78t108.5 24q107 0 141 -65l396 -768q49 -94 113.5 -234.5t103.5 -242.5h4q-12 199 -12 428v803q0 79 92 79q46 0 68 -18t22 -61v-1336q0 -53 -33.5 -76.5t-105.5 -23.5q-103 0 -138 63l-419 811q-60 117 -201 430h-4q12 -194 12 -391v-833 q0 -80 -92 -80q-46 0 -68 18.5t-22 61.5z" />
<glyph unicode="O" horiz-adv-x="1363" d="M141 528v441q0 260 139.5 404.5t401.5 144.5t401.5 -144.5t139.5 -404.5v-441q0 -260 -139.5 -404t-401.5 -144t-401.5 144t-139.5 404zM330 520q0 -173 85 -273t267 -100t267 100t85 273v457q0 173 -85 273t-267 100t-267 -100t-85 -273v-457z" />
<glyph unicode="P" horiz-adv-x="1153" d="M162 70v1321q0 59 33.5 82.5t107.5 23.5h297q469 0 469 -434v-66q0 -207 -113 -322.5t-358 -115.5h-246v-489q0 -44 -24 -63t-72 -19q-49 0 -71.5 18.5t-22.5 63.5zM352 723h234q164 0 228.5 69t64.5 216v45q0 146 -64.5 212t-230.5 66h-232v-608z" />
<glyph unicode="Q" horiz-adv-x="1363" d="M141 530v357q0 47 4 129q5 111 37.5 200t95.5 158t165.5 106.5t238.5 37.5t238.5 -37.5t165.5 -106.5t95.5 -158t37.5 -200q4 -82 4 -129v-332q0 -194 -56.5 -323t-181.5 -193l145 -260q11 -16 11 -32q0 -14 -10 -28q-20 -28 -74 -28q-58 0 -80 43l-141 258 q-70 -15 -154 -15q-541 0 -541 553zM332 479q0 -144 80 -230t223 -97q26 -3 51 -3q33 0 64 5l-129 235q-11 17 -11 32t9 28q19 28 73 28q58 0 80 -43l127 -233q135 86 135 276v475q0 196 -80.5 297t-271.5 101t-270.5 -100t-79.5 -296v-475z" />
<glyph unicode="R" horiz-adv-x="1187" d="M162 70v1321q0 59 33.5 82.5t107.5 23.5h318q119 0 207 -29.5t140 -85t76.5 -129t24.5 -166.5v-83q0 -147 -66 -249t-200 -145l282 -512q14 -21 14 -41q0 -19 -12 -35q-24 -34 -90 -34q-71 0 -100 53l-287 545h-258v-516q0 -44 -24 -63t-72 -19q-49 0 -71.5 18.5 t-22.5 63.5zM352 748h256q271 0 271 268v59q0 131 -64.5 193.5t-220.5 62.5h-242v-583z" />
<glyph unicode="S" horiz-adv-x="1081" d="M70 270q-7 18 -7 34q0 49 68 69q25 9 45 9q13 0 24 -4q28 -10 42 -52q30 -87 106.5 -136t194.5 -49q114 0 191 58.5t77 175.5q0 46 -11 82t-30.5 64t-59 56.5t-82 52t-114.5 58.5q-89 42 -143.5 71t-112.5 71t-89 83.5t-51 99t-20 128.5q0 169 122 273t315 104 q172 0 283 -76t159 -199q7 -18 7 -33q0 -49 -69 -69q-25 -9 -44 -9q-13 0 -23 4q-26 10 -43 52q-32 76 -101.5 120t-166.5 44q-124 0 -188 -54t-64 -157q0 -50 16.5 -87t68.5 -74.5t88 -57t134 -67.5l9 -4.5l8 -4l9 -4.5q78 -38 128.5 -67t103.5 -70.5t83.5 -85t50.5 -103.5 q21 -63 20 -136q0 -182 -126 -292q-128 -112 -337 -111q-189 0 -306 80t-165 213z" />
<glyph unicode="T" horiz-adv-x="1042" d="M-20 1415q0 42 16 62t55 20h940q39 0 55.5 -20t16.5 -62q0 -43 -16.5 -63.5t-55.5 -20.5h-375v-1261q0 -44 -24 -63t-72 -19q-49 0 -71.5 18.5t-22.5 63.5v1261h-375q-39 0 -55 20.5t-16 63.5z" />
<glyph unicode="U" horiz-adv-x="1320" d="M145 420v1007q0 45 23 63.5t72 18.5q48 0 72 -19t24 -63v-987q0 -143 80.5 -219t240.5 -76q163 0 247.5 76.5t84.5 218.5v990q0 43 23 61t69 18q47 0 70 -18t23 -61v-1010q0 -196 -135 -319.5t-382 -123.5q-252 0 -382 122t-130 321z" />
<glyph unicode="V" horiz-adv-x="1177" d="M43 1409q-6 19 -6 35q1 23 13 39q20 26 73 26q84 0 106 -71l203 -686q91 -313 154 -584h4q57 246 155 582l209 690q21 69 105 69q51 0 71 -25q12 -15 13 -37q0 -15 -6 -34l-422 -1343q-14 -48 -43 -65t-84 -17t-86.5 17t-44.5 61z" />
<glyph unicode="W" horiz-adv-x="1744" d="M35 1409q-5 19 -5 35q0 65 85 65q91 0 106 -71l141 -635q91 -399 123 -635h4q35 236 121 633l148 639q9 39 35 54t73 15q48 0 73.5 -14t35.5 -55l151 -635q90 -375 131 -637h5q26 165 122 637l140 635q15 69 104 69q82 0 82 -64q0 -14 -4 -32l-320 -1343 q-11 -49 -40.5 -65.5t-85.5 -16.5t-88 17t-42 61l-161 708q-69 291 -103 461h-2q-40 -229 -92 -461l-158 -704q-11 -49 -41 -65.5t-86 -16.5t-88.5 17.5t-42.5 60.5z" />
<glyph unicode="X" horiz-adv-x="1183" d="M54 22q-11 16 -11 32q0 18 14 38l426 662l-401 643q-14 19 -14 38q0 17 12 33q24 34 86 33q67 0 96 -51l328 -551l336 553q29 51 94 51q62 -1 85 -33q11 -15 11 -31q0 -18 -14 -38l-410 -643l432 -668q14 -20 14 -38q0 -16 -11 -32q-23 -32 -85 -32q-65 0 -94 51 l-360 573l-350 -573q-29 -51 -97 -51q-63 0 -87 34z" />
<glyph unicode="Y" horiz-adv-x="1120" d="M22 1447q3 23 28 38.5t67 15.5q70 0 96 -51l350 -664l350 666q26 51 95 51q62 0 84 -32q11 -15 11 -32q0 -18 -13 -38l-435 -789v-542q0 -44 -24 -63t-72 -19q-49 0 -71.5 18.5t-22.5 63.5v540l-432 787q-11 23 -11 42v8z" />
<glyph unicode="Z" horiz-adv-x="1114" d="M67 127q3 23 21 51l731 1153h-641q-39 0 -55.5 20.5t-16.5 63.5q0 42 16.5 62t55.5 20h772q35 0 54.5 -17.5t31.5 -56.5q10 -30 7 -53t-21 -51l-731 -1153h706q39 0 55.5 -20t16.5 -62q0 -43 -16.5 -63.5t-55.5 -20.5h-837q-35 0 -54.5 17.5t-31.5 56.5q-8 23 -8 42 q0 6 1 11z" />
<glyph unicode="[" horiz-adv-x="684" d="M172 -190v1654q0 53 30.5 75t98.5 22h256q36 0 51 -18.5t15 -57.5q0 -38 -15 -57t-51 -19h-203v-1544h203q36 0 51 -19t15 -57q0 -39 -15 -57.5t-51 -18.5h-256q-68 0 -98.5 22t-30.5 75z" />
<glyph unicode="\" horiz-adv-x="772" d="M45 1430q-15 37 5.5 61.5t64.5 24.5q68 0 94 -64l579 -1380q15 -37 -5 -61.5t-64 -24.5q-68 0 -94 63z" />
<glyph unicode="]" horiz-adv-x="684" d="M63 -211q0 38 15 57t51 19h203v1544h-203q-36 0 -51 19t-15 57q0 39 15 57.5t51 18.5h256q68 0 98.5 -22t30.5 -75v-1654q0 -53 -30.5 -75t-98.5 -22h-256q-36 0 -51 18.5t-15 57.5z" />
<glyph unicode="^" d="M276 793l250 639q13 37 39.5 51t73.5 14q45 0 70 -14t39 -53l245 -637q31 -95 -75 -95q-82 0 -101 68l-184 539l-180 -539q-19 -68 -101 -68q-52 0 -71.5 24.5t-4.5 70.5z" />
<glyph unicode="_" horiz-adv-x="790" d="M-2 -133h795v-103h-795v103z" />
<glyph unicode="`" horiz-adv-x="636" d="M159 1554q18 29 68 29q63 0 90 -41l156 -237q17 -25 4.5 -41.5t-47.5 -16.5q-44 0 -76 37l-188 215q-25 26 -7 55z" />
<glyph unicode="a" horiz-adv-x="1054" d="M82 303v10q0 94 34 160t110 110q76 45 204 61q76 10 173 10q64 0 138 -5v70q0 139 -54.5 202.5t-170.5 63.5q-150 0 -213 -137q-17 -36 -41.5 -42.5t-60.5 11.5q-39 18 -50.5 40t3.5 58q111 224 376 224q186 0 289 -109t103 -307v-660q0 -41 -21.5 -58t-66.5 -17 q-46 0 -67.5 17t-21.5 58v68q-139 -151 -333 -151q-143 0 -236.5 90t-93.5 233zM264 315q0 -79 54 -130.5t141 -51.5q166 0 282 133v260q-45 2 -85 2q-202 0 -288 -38q-104 -45 -104 -164v-11z" />
<glyph unicode="b" horiz-adv-x="1161" d="M147 66v1400q0 43 23 61.5t70 18.5q46 0 69 -18.5t23 -61.5v-524q47 76 137 136.5t205 60.5q180 0 279.5 -113t99.5 -324v-280q0 -105 -33 -190.5t-90.5 -139.5t-131.5 -83t-159 -29q-121 0 -199.5 47t-113.5 112v-73q0 -42 -22 -60t-68 -18q-45 0 -67 18t-22 60z M332 406q0 -119 75.5 -196t198.5 -77q122 0 193 73.5t71 235.5v232q0 309 -245 309q-117 0 -205 -88.5t-88 -220.5v-268z" />
<glyph unicode="c" horiz-adv-x="1019" d="M109 414v293q0 207 123 319.5t313 112.5q147 0 248.5 -70.5t138.5 -194.5q5 -17 5 -30q1 -20 -9 -32q-16 -22 -62 -32q-22 -7 -40 -7q-15 0 -26 5q-25 11 -38 53q-21 68 -75 111t-142 43q-115 0 -184.5 -73.5t-69.5 -221.5v-266q0 -146 67 -218.5t187 -72.5 q168 0 223 125q18 41 41.5 50.5t62.5 -3.5q65 -21 65 -67q0 -14 -7 -31q-44 -108 -142.5 -167.5t-250.5 -59.5q-192 0 -310 111.5t-118 322.5z" />
<glyph unicode="d" horiz-adv-x="1163" d="M109 406v296q0 198 109 317.5t292 119.5q210 0 321 -142v469q0 80 93 80q47 0 69.5 -18.5t22.5 -61.5v-1400q0 -42 -21.5 -60t-66.5 -18q-46 0 -68 18t-22 60v75q-45 -66 -129 -113.5t-199 -47.5q-180 0 -290.5 112t-110.5 314zM291 428q0 -148 71.5 -221.5t200.5 -73.5 q122 0 196.5 81t74.5 198v303q0 122 -80 196t-199 74q-122 0 -193 -78t-71 -241v-238z" />
<glyph unicode="e" horiz-adv-x="1073" d="M109 412v297q0 197 120.5 313.5t313.5 116.5q206 0 321 -115t115 -342v-88q0 -102 -107 -102h-583v-80q0 -130 65 -204.5t197 -74.5q175 0 246 123q22 36 44.5 43.5t59.5 -10.5q57 -25 57 -65q0 -18 -12 -40q-110 -204 -395 -204q-213 0 -327.5 116t-114.5 316zM289 629 h512v80q0 128 -64.5 202t-193.5 74q-118 0 -186 -74.5t-68 -201.5v-80z" />
<glyph unicode="f" horiz-adv-x="722" d="M66 1042q0 40 14.5 58t50.5 18h82v88q0 167 82 255.5t231 88.5q147 0 236 -96q22 -23 22 -47q0 -27 -30 -55q-32 -29 -54.5 -30.5t-50.5 28.5q-44 47 -121 47q-131 0 -131 -170v-109h254q36 0 51 -18.5t15 -57.5q0 -37 -15 -55t-51 -18h-254v-901q0 -43 -23 -61.5 t-69 -18.5q-47 0 -69.5 18.5t-22.5 61.5v901h-82q-35 0 -50 18t-15 55z" />
<glyph unicode="g" horiz-adv-x="1069" d="M57 -111q0 104 53.5 179t149.5 114q-100 51 -100 146q0 102 108 159q-166 92 -166 285v12q0 169 113 262t303 93q155 0 262 -64q128 80 226 80q34 0 48.5 -17.5t14.5 -54.5q0 -36 -14.5 -53.5t-48.5 -17.5q-50 0 -144 -4q72 -85 72 -209v-35q0 -154 -113.5 -243 t-308.5 -89q-80 0 -141 17q-56 -29 -56 -72q0 -61 117 -78l254 -37q183 -29 256.5 -109t73.5 -237q0 -154 -124 -255t-360 -101q-232 0 -353.5 85.5t-121.5 243.5zM231 -84q0 -213 304 -213q307 0 307 211q0 87 -42.5 131.5t-166.5 63.5l-189 28l-47 8q-81 -29 -123.5 -89 t-42.5 -140zM272 778q0 -106 65 -157.5t181 -51.5q246 0 246 209q0 109 -64 166t-182 57t-182 -57t-64 -166z" />
<glyph unicode="h" horiz-adv-x="1144" d="M147 68v1398q0 43 23 61.5t70 18.5q46 0 69 -18.5t23 -61.5v-518q143 191 352 191q157 0 241.5 -97t84.5 -264v-710q0 -43 -23 -61.5t-69 -18.5q-47 0 -69 18.5t-22 61.5v663q0 130 -48.5 192t-153.5 62q-92 0 -171.5 -60t-121.5 -149v-708q0 -43 -23 -61.5t-69 -18.5 q-47 0 -70 18.5t-23 61.5z" />
<glyph unicode="i" horiz-adv-x="475" d="M145 68v979q0 43 23 61t70 18q46 0 69 -18t23 -61v-979q0 -43 -23 -61.5t-69 -18.5q-47 0 -70 18.5t-23 61.5zM145 1356v110q0 43 23 61.5t70 18.5q46 0 69 -18.5t23 -61.5v-110q0 -43 -23 -61.5t-69 -18.5q-47 0 -70 18.5t-23 61.5z" />
<glyph unicode="j" horiz-adv-x="493" d="M-12 -320q5 20 26 39q80 70 116 149t36 216v963q0 43 22.5 61t69.5 18q46 0 69 -18t23 -61v-961q0 -307 -211 -496q-29 -24 -54 -24h-7q-27 4 -58 37q-20 22 -28 40q-5 12 -5 24q0 6 1 13zM164 1356v110q0 43 22.5 61.5t69.5 18.5q46 0 69 -18.5t23 -61.5v-110 q0 -43 -23 -61.5t-69 -18.5q-47 0 -69.5 18.5t-22.5 61.5z" />
<glyph unicode="k" horiz-adv-x="1003" d="M147 68v1398q0 43 23 61.5t70 18.5q46 0 69 -18.5t23 -61.5v-835l418 459q34 40 94 40q63 0 81 -37q6 -12 6 -24q0 -25 -26 -51l-315 -336l366 -584q15 -22 15 -42q0 -17 -11 -33q-23 -35 -86 -35q-40 0 -64 12.5t-42 40.5l-311 512l-125 -131v-354q0 -43 -23 -61.5 t-69 -18.5q-47 0 -70 18.5t-23 61.5z" />
<glyph unicode="l" horiz-adv-x="479" d="M147 68v1398q0 43 23 61.5t70 18.5q46 0 69 -18.5t23 -61.5v-1398q0 -43 -23 -61.5t-69 -18.5q-47 0 -70 18.5t-23 61.5z" />
<glyph unicode="m" horiz-adv-x="1687" d="M147 68v981q0 42 21.5 59.5t67.5 17.5t68 -17.5t22 -59.5v-99q48 80 130.5 134.5t188.5 54.5q110 0 178 -57t97 -142q60 97 148 148t187 51q136 0 216.5 -91t80.5 -239v-741q0 -43 -23 -61.5t-69 -18.5q-47 0 -69.5 18.5t-22.5 61.5v692q0 223 -168 223q-87 0 -154.5 -57 t-103.5 -148v-710q0 -43 -23 -61.5t-69 -18.5q-47 0 -69.5 18.5t-22.5 61.5v698q0 217 -170 217q-91 0 -158 -59.5t-98 -143.5v-712q0 -43 -23 -61.5t-69 -18.5q-47 0 -70 18.5t-23 61.5z" />
<glyph unicode="n" horiz-adv-x="1142" d="M147 68v981q0 42 21.5 59.5t67.5 17.5t69 -18t23 -59v-103q148 193 360 193q158 0 239 -96.5t81 -256.5v-718q0 -80 -93 -80q-47 0 -69.5 18.5t-22.5 61.5v663q0 56 -8 98t-28.5 79.5t-61 57t-100.5 19.5q-94 0 -172 -60t-121 -149v-708q0 -43 -23 -61.5t-69 -18.5 q-47 0 -70 18.5t-23 61.5z" />
<glyph unicode="o" horiz-adv-x="1128" d="M109 399v312q0 202 120 315t334 113q220 0 338.5 -112t118.5 -316v-303q0 -201 -120 -314.5t-337 -113.5q-216 0 -335 111t-119 308zM291 420q0 -148 71.5 -217.5t200.5 -69.5q130 0 202.5 71.5t72.5 219.5v270q0 149 -72 220t-203 71q-126 0 -199 -71.5t-73 -219.5v-274 z" />
<glyph unicode="p" horiz-adv-x="1157" d="M147 -356v1405q0 42 21.5 59.5t67.5 17.5t69 -18t23 -59v-109q48 78 139 138.5t205 60.5q180 0 280.5 -113.5t100.5 -323.5v-280q0 -105 -33.5 -190.5t-91 -139.5t-132 -83t-159.5 -29q-117 0 -193.5 47t-111.5 112v-495q0 -43 -23 -61.5t-69 -18.5q-47 0 -70 18.5 t-23 61.5zM330 399q0 -117 75.5 -191.5t200.5 -74.5q121 0 191.5 73t70.5 236v232q0 309 -243 309q-117 0 -206 -88.5t-89 -220.5v-275z" />
<glyph unicode="q" horiz-adv-x="1163" d="M106 403v306q0 196 112.5 313t293.5 117q118 0 199.5 -47t124.5 -115v72q0 41 23 59t69 18q45 0 66.5 -17.5t21.5 -59.5v-1405q0 -43 -22.5 -61.5t-69.5 -18.5q-93 0 -93 80v491q-115 -155 -327 -155q-176 0 -287 114t-111 309zM289 424q0 -140 69.5 -215.5t190.5 -75.5 q131 0 208 75t77 210v297q0 113 -76.5 191.5t-198.5 78.5q-130 0 -200 -82t-70 -221v-258z" />
<glyph unicode="r" horiz-adv-x="704" d="M147 68v981q0 41 22.5 59t68.5 18q90 0 90 -77v-154q47 101 136.5 171.5t178.5 70.5q39 0 52.5 -19t13.5 -61q0 -101 -77 -101h-5q-109 0 -189.5 -72.5t-105.5 -160.5v-655q0 -43 -23 -61.5t-69 -18.5q-47 0 -70 18.5t-23 61.5z" />
<glyph unicode="s" horiz-adv-x="907" d="M84 213q-6 18 -6 32q0 15 7 27q14 22 56 37q22 8 40 8q13 0 25 -4q26 -10 40 -49q23 -61 78.5 -98t140.5 -37q92 0 148.5 45t56.5 117q0 52 -31.5 90.5t-81.5 63t-111 46t-122 48.5t-111 61.5t-81.5 93t-31.5 135.5q0 137 101.5 223.5t265.5 86.5q131 0 218.5 -58.5 t127.5 -158.5q7 -17 7 -32q0 -44 -64 -65q-38 -14 -62 -4.5t-41 49.5q-52 117 -196 117q-88 0 -138.5 -39.5t-50.5 -111.5q0 -47 31.5 -81.5t82 -57.5t111.5 -44.5t122 -49.5t111.5 -65t82 -99t31.5 -144q0 -135 -103.5 -225t-271.5 -90q-145 0 -243 59.5t-138 173.5z" />
<glyph unicode="t" horiz-adv-x="729" d="M23 1042q0 40 14.5 58t50.5 18h107v215q0 42 22 60t68 18q90 0 90 -78v-215h180q36 0 51 -18.5t15 -57.5q0 -37 -15 -55t-51 -18h-178v-641q0 -101 39 -137.5t133 -36.5h35q37 0 52 -18.5t15 -59.5q0 -39 -15 -57.5t-52 -18.5h-58q-63 0 -112 8.5t-91 30t-69.5 57t-43 91 t-15.5 130.5v652h-107q-35 0 -50 18t-15 55z" />
<glyph unicode="u" horiz-adv-x="1144" d="M135 311v736q0 43 23 61t69 18q47 0 69.5 -18t22.5 -61v-705q0 -102 47 -155.5t130 -53.5q87 0 170 45t147 129v740q0 43 23 61t69 18q47 0 69.5 -18t22.5 -61v-979q0 -42 -21.5 -60t-66.5 -18q-92 0 -92 78v82q-166 -170 -368 -170q-149 0 -231.5 86.5t-82.5 244.5z" />
<glyph unicode="v" horiz-adv-x="950" d="M27 1026q-6 21 -6 37q0 22 11 37q20 26 74 26q85 0 107 -71l158 -484q79 -256 108 -411h4q23 128 111 411l147 486q21 69 103 69q50 0 70 -26q12 -15 12 -35q0 -16 -6 -35l-320 -960q-14 -45 -42.5 -61.5t-78.5 -16.5q-52 0 -82 16.5t-43 57.5z" />
<glyph unicode="w" horiz-adv-x="1445" d="M45 1026q-5 19 -5 35q0 65 85 65q88 0 104 -71l121 -484q54 -237 76 -405h4q20 149 84 405l123 496q15 59 100 59q41 0 65 -12.5t32 -48.5l120 -496q65 -301 78 -401h4q20 147 82 405l119 490q15 63 94 63q45 0 63 -24q12 -15 11 -36q0 -13 -4 -28l-262 -972 q-11 -42 -38 -57t-75 -15t-76.5 14.5t-38.5 52.5l-106 433q-61 257 -74 385h-4q-21 -154 -78 -385l-110 -426q-11 -43 -39 -58.5t-76 -15.5q-50 0 -79.5 15t-39.5 54z" />
<glyph unicode="x" horiz-adv-x="940" d="M69 18q-8 13 -8 28q0 18 13 38l301 481l-299 461q-14 20 -14 39q0 15 10 29q20 32 78 32q68 0 96 -49l237 -381l226 383q28 47 94 47q55 0 74 -30q8 -13 8 -28q0 -18 -13 -38l-299 -471l297 -471q14 -21 14 -39q0 -15 -9 -29q-20 -32 -78 -32q-69 0 -97 49l-231 391 l-231 -393q-28 -47 -95 -47q-55 0 -74 30z" />
<glyph unicode="y" horiz-adv-x="935" d="M18 1026q-8 21 -8 38q0 21 12 36q22 26 76 26q85 0 107 -71l272 -830l266 832q21 69 103 69q50 0 72 -26q12 -14 12 -34q0 -16 -8 -36l-377 -1057q-95 -268 -291 -395q-26 -16 -47 -16q-7 0 -13 2q-26 6 -53 41q-23 34 -23 60q0 31 32 52q78 50 134 120t95 177z" />
<glyph unicode="z" horiz-adv-x="958" d="M64 94q2 16 16 37l551 834h-469q-36 0 -52 18t-16 57q0 78 68 78h631q27 0 41.5 -12t21.5 -41q8 -25 5.5 -41.5t-15.5 -36.5l-547 -833h528q36 0 52 -18.5t16 -57.5q0 -78 -68 -78h-694q-27 0 -41.5 12t-21.5 41q-6 19 -6 33q-1 4 0 8z" />
<glyph unicode="{" horiz-adv-x="739" d="M53 633q0 35 11 53.5t38 22.5q97 15 139 65.5t42 151.5v321q0 73 11 128.5t37 100.5t73.5 69t115.5 24h68q36 0 50.5 -18t14.5 -58q0 -38 -15 -57t-50 -19h-33q-51 0 -77.5 -30.5t-26.5 -83.5v-420q0 -94 -60 -161.5t-155 -82.5v-4q94 -18 154.5 -83.5t60.5 -168.5v-406 q0 -120 108 -120h29q35 0 50 -19t15 -57q0 -40 -14.5 -58t-50.5 -18h-68q-123 0 -180 77t-57 210v381q0 78 -46.5 125.5t-130.5 56.5q-53 5 -53 78z" />
<glyph unicode="|" horiz-adv-x="497" d="M162 -471v2042q0 41 21.5 58.5t64.5 17.5q46 0 67 -17t21 -59v-2042q0 -42 -21 -59t-67 -17q-43 0 -64.5 17.5t-21.5 58.5z" />
<glyph unicode="}" horiz-adv-x="743" d="M90 -219q0 38 15 57t51 19h32q51 0 78 30.5t27 83.5v420q0 94 60 161.5t155 82.5v4q-94 18 -154.5 83.5t-60.5 168.5v405q0 121 -109 121h-28q-36 0 -51 19t-15 57q0 39 15 57.5t51 18.5h67q123 0 180.5 -77t57.5 -210v-381q0 -78 46.5 -125.5t129.5 -56.5q53 -5 53 -78 q0 -35 -11 -53.5t-38 -22.5q-97 -15 -138.5 -65.5t-41.5 -151.5v-321q0 -73 -11.5 -128.5t-37.5 -100.5t-73.5 -69t-115.5 -24h-67q-36 0 -51 18.5t-15 57.5z" />
<glyph unicode="~" d="M176 614q38 61 98.5 106.5t128.5 45.5q54 0 119.5 -18.5t116.5 -41t112 -41t107 -18.5q59 0 115 74q37 52 92 12q55 -42 27 -86q-38 -60 -97.5 -104.5t-128.5 -44.5q-79 0 -164 29t-160.5 58t-131.5 29q-60 0 -115 -73q-38 -53 -92 -13q-55 42 -27 86z" />
<glyph unicode="&#xa1;" horiz-adv-x="546" d="M186 -309l21 940q0 33 16 47t51 14q68 0 68 -61l20 -940q3 -78 -88 -78q-46 0 -67.5 18t-20.5 60zM188 969v102q0 42 21 59t65 17q86 0 86 -76v-102q0 -76 -86 -76q-44 0 -65 18t-21 58z" />
<glyph unicode="&#xa2;" d="M219 414v293q0 178 91.5 286t244.5 135v109q0 45 21 63.5t69 18.5q47 0 69.5 -18.5t22.5 -63.5v-104q115 -19 193.5 -86.5t111.5 -172.5q12 -40 -4.5 -61.5t-60.5 -32.5q-41 -13 -66.5 -2t-38.5 53q-21 68 -75 111t-142 43q-115 0 -184.5 -73.5t-69.5 -221.5v-266 q0 -146 67 -218.5t187 -72.5q87 0 143 34t81 91q18 41 41.5 50.5t62.5 -3.5q85 -28 57 -98q-77 -188 -303 -221v-113q0 -45 -22.5 -63.5t-69.5 -18.5q-48 0 -69 18.5t-21 63.5v115q-155 24 -245.5 132.5t-90.5 293.5z" />
<glyph unicode="&#xa3;" d="M141 737q0 40 16 59t52 19h119q-3 33 -20 130t-17 155q0 197 121.5 307.5t310.5 110.5q150 0 250 -71.5t147 -193.5q14 -38 0.5 -60t-57.5 -40q-38 -16 -64.5 -6t-40.5 51q-31 83 -90 122.5t-153 39.5q-103 0 -170.5 -65.5t-67.5 -188.5q0 -56 17.5 -154.5t21.5 -136.5 h299q36 0 52 -19t16 -59q0 -80 -68 -80l-293 2q6 -304 -108 -501h661q36 0 52 -19t16 -59q0 -41 -16 -60.5t-52 -19.5h-821q-24 0 -37 11.5t-22 39.5q-13 45 8 74q139 192 139 473q0 38 -2 61l-131 -2q-68 0 -68 80z" />
<glyph unicode="&#xa4;" d="M66 610q0 74 63 74h117v143h-117q-34 0 -48.5 17t-14.5 55q0 74 63 74h117v55q0 225 134 357.5t359 132.5q186 0 309.5 -80t174.5 -221q28 -76 -62 -103q-41 -15 -68.5 -5t-41.5 52q-32 91 -116 143t-202 52q-297 0 -297 -338v-45h367q59 0 59 -74q0 -37 -13.5 -54.5 t-45.5 -17.5h-367v-143h367q59 0 59 -74q0 -37 -13.5 -54t-45.5 -17h-367v-58q0 -346 297 -346q238 0 314 201q17 43 43 52.5t67 -5.5q46 -14 61.5 -38t0.5 -64q-21 -58 -59 -110t-94 -96.5t-137 -71t-175 -26.5q-254 0 -381 128.5t-127 361.5v72h-117q-35 0 -49 16.5 t-14 54.5z" />
<glyph unicode="&#xa5;" d="M95.5 1447q2.5 23 27.5 38.5t67 15.5q71 0 97 -51l350 -664l350 666q26 51 94 51q62 0 84 -32t-2 -70l-434 -789v-34h254q64 0 64 -78q0 -39 -15 -57.5t-49 -18.5h-254v-354q0 -44 -24 -63t-72 -19q-49 0 -71.5 18.5t-22.5 63.5v354h-252q-36 0 -51 18.5t-15 57.5 q0 78 66 78h252v32l-433 787q-13 27 -10.5 50z" />
<glyph unicode="&#xa6;" horiz-adv-x="483" d="M162 367q0 41 21.5 58t64.5 17q46 0 67 -17t21 -58v-844q0 -42 -21 -59t-67 -17q-43 0 -64.5 17.5t-21.5 58.5v846v-2zM162 727v846v-2q0 41 21.5 58.5t64.5 17.5q46 0 67 -17t21 -59v-844q0 -42 -21 -59t-67 -17q-43 0 -64.5 17.5t-21.5 58.5z" />
<glyph unicode="&#xa7;" horiz-adv-x="1024" d="M141 57q-12 36 2 58.5t54 36.5q38 14 63.5 4t38.5 -50q23 -69 76.5 -110t136.5 -41q91 0 142 43.5t51 126.5q0 42 -17 77t-54 65.5t-80.5 55.5t-111.5 56q-142 66 -207 136.5t-65 184.5q0 90 56.5 163.5t152.5 99.5q-110 49 -172 119.5t-62 177.5q0 115 94.5 196.5 t262.5 81.5q128 0 215 -59t127 -152q28 -66 -56 -94q-38 -12 -62 -2.5t-38 47.5q-22 54 -69 87.5t-117 33.5q-87 0 -130.5 -38t-43.5 -99t51.5 -109.5t202.5 -114.5q157 -68 224.5 -144t67.5 -196q0 -93 -61.5 -166.5t-150.5 -99.5q235 -116 235 -305q0 -139 -108 -226 t-279 -87q-135 0 -233.5 65t-135.5 178zM338 700q0 -76 56 -130t134 -54q84 0 131.5 50t47.5 126q0 82 -56.5 133.5t-142.5 51.5q-81 0 -125.5 -51t-44.5 -126z" />
<glyph unicode="&#xa8;" horiz-adv-x="843" d="M154 1337v111q0 39 20.5 55.5t63.5 16.5q81 0 81 -72v-111q0 -40 -20.5 -56.5t-60.5 -16.5q-43 0 -63.5 16.5t-20.5 56.5zM524 1337v111q0 39 20.5 55.5t63.5 16.5q82 0 82 -72v-111q0 -73 -82 -73q-43 0 -63.5 16.5t-20.5 56.5z" />
<glyph unicode="&#xa9;" horiz-adv-x="1558" d="M47 731q0 152 58 287.5t156 231.5t233 152t284 56q215 0 383 -94t260 -259.5t92 -373.5q0 -148 -58.5 -283.5t-157.5 -233.5t-235 -156t-284 -58q-213 0 -378 88t-259 255t-94 388zM172 731q0 -273 169.5 -443.5t438.5 -170.5q165 0 305.5 83t222 224.5t81.5 306.5 q0 127 -45.5 239.5t-125 194t-193.5 129t-245 47.5q-128 0 -241.5 -48t-193.5 -130t-126.5 -194.5t-46.5 -237.5zM461 610v217q0 155 91.5 239.5t233.5 84.5q108 0 184.5 -53t104.5 -146q16 -56 -59 -73q-29 -9 -47 -1t-27 40q-15 48 -53.5 79t-100.5 31q-83 0 -132.5 -54 t-49.5 -163v-190q0 -106 48 -159.5t134 -53.5q118 0 156 92q13 30 30 36t46 -4q74 -25 53 -77q-71 -168 -293 -168q-144 0 -231.5 83t-87.5 240z" />
<glyph unicode="&#xaa;" horiz-adv-x="813" d="M82 932v20q0 134 113.5 192t367.5 52v29q0 172 -162 172q-111 0 -157 -84q-14 -27 -32.5 -31.5t-45.5 8.5q-60 26 -35 74q35 69 103.5 111.5t168.5 42.5q151 0 231.5 -81.5t80.5 -224.5v-438q0 -34 -17.5 -48.5t-54.5 -14.5q-39 0 -57.5 14.5t-18.5 48.5v31 q-113 -100 -243 -100q-98 0 -170 62t-72 165zM223 938q0 -55 38 -86t101 -31q109 0 201 92v179q-194 3 -267 -30t-73 -114v-10z" />
<glyph unicode="&#xab;" horiz-adv-x="1105" d="M104 602q0 13 2.5 25.5t9 24t10.5 18.5t13.5 20t12.5 17l227 327q21 31 46.5 33.5t57.5 -20.5q67 -44 27 -101l-238 -344l238 -344q40 -56 -27 -100q-31 -23 -57 -21t-47 33l-227 328q-2 3 -9.5 13.5t-10 14.5t-8.5 13.5t-8.5 15t-6 14t-4.5 16.5t-1 17zM547 602 q0 13 2.5 25t9 24.5t10 18.5t13.5 20t12 17l227 327q39 58 105 13q66 -44 26 -101l-237 -344l237 -344q40 -57 -26 -100q-67 -45 -105 12l-227 328q-1 1 -8.5 11.5t-9 13t-7.5 12t-7.5 13t-5.5 12t-5 14t-2.5 13t-1.5 15.5z" />
<glyph unicode="&#xac;" d="M104 637q0 72 60 72h907q57 0 57 -72v-471q0 -31 -16 -44t-51 -13q-68 0 -68 57v401h-829q-33 0 -46.5 17t-13.5 53z" />
<glyph unicode="&#xad;" horiz-adv-x="944" d="M125 614q0 74 63 74h590q62 0 62 -74q0 -38 -14.5 -55.5t-47.5 -17.5h-590q-34 0 -48.5 17.5t-14.5 55.5z" />
<glyph unicode="&#xae;" horiz-adv-x="1048" d="M90 1096q0 178 127.5 304t306.5 126q188 0 311 -121.5t123 -308.5q0 -177 -127 -299.5t-307 -122.5q-188 0 -311 118t-123 304zM180 1096q0 -151 95.5 -247.5t248.5 -96.5q145 0 244.5 101t99.5 243q0 155 -96.5 252.5t-247.5 97.5q-146 0 -245 -101.5t-99 -248.5z M375 911v367q0 27 14 37t47 10h105q72 0 110.5 -38.5t38.5 -92.5v-16q0 -44 -22 -79t-62 -50l68 -125q12 -19 1 -34.5t-40 -15.5q-31 0 -43 25l-68 139h-67v-127q0 -37 -41 -37q-22 0 -31.5 8.5t-9.5 28.5zM457 1108h65q48 0 66 16.5t18 53.5v10q0 67 -74 67h-75v-147z" />
<glyph unicode="&#xaf;" horiz-adv-x="937" d="M203 1415q0 74 63 74h410q61 0 61 -74q0 -38 -14 -56t-47 -18h-410q-34 0 -48.5 18t-14.5 56z" />
<glyph unicode="&#xb0;" horiz-adv-x="827" d="M82 1204q0 136 98 231t234 95q147 0 239 -89.5t92 -236.5q0 -133 -98 -228t-233 -95q-144 0 -238 89.5t-94 233.5zM221 1204q0 -79 55 -134.5t136 -55.5q79 0 135.5 54.5t56.5 135.5t-53.5 137t-138.5 56q-79 0 -135 -55.5t-56 -137.5z" />
<glyph unicode="&#xb1;" d="M109 76q0 78 65 78h377v403h-377q-36 0 -50.5 18t-14.5 58q0 78 65 78h377v376q0 40 20 57t64 17q84 0 84 -74v-376h379q63 0 63 -78q0 -39 -14.5 -57.5t-48.5 -18.5h-379v-403h379q63 0 63 -78q0 -39 -14.5 -57.5t-48.5 -18.5h-924q-36 0 -50.5 18t-14.5 58z" />
<glyph unicode="&#xb2;" horiz-adv-x="665" d="M61 786v33q0 108 49.5 178.5t163.5 128.5q110 56 139 80q46 37 46 88q0 44 -32 72.5t-91 28.5q-111 0 -160 -92q-13 -27 -32 -31t-46 10q-59 24 -30 76q92 160 274 160q117 0 187.5 -59t70.5 -163q0 -48 -15.5 -85.5t-53 -70t-79.5 -58t-114 -60.5q-83 -40 -110 -80.5 t-27 -103.5h336q30 0 42.5 -14.5t12.5 -47.5q0 -32 -12.5 -46.5t-42.5 -14.5h-379q-51 0 -74 16t-23 55z" />
<glyph unicode="&#xb3;" horiz-adv-x="661" d="M58 901.5q10 15.5 42 26.5q29 10 47 4t31 -35q32 -72 146 -72q57 0 94 29t37 84v12q0 56 -39.5 88.5t-108.5 32.5h-39q-47 0 -47 57q0 60 47 60h54q55 0 94 26.5t39 73.5v6q0 47 -32.5 75t-90.5 28q-115 0 -156 -78q-13 -27 -29 -33t-43 4q-32 11 -41.5 25.5t0.5 42.5 q29 69 101.5 114.5t171.5 45.5q127 0 192.5 -60.5t65.5 -150.5v-17q0 -64 -36.5 -108t-88.5 -52q54 -18 89.5 -65.5t35.5 -110.5v-20q0 -102 -71 -167t-193 -65q-105 0 -174 42.5t-97 111.5q-11 30 -1 45.5z" />
<glyph unicode="&#xb4;" horiz-adv-x="636" d="M177 1263.5q-13 16.5 3 41.5l158 239q23 37 94 37q44 0 60 -24t-9 -56l-184 -217q-32 -37 -76 -37q-33 0 -46 16.5z" />
<glyph unicode="&#xb5;" horiz-adv-x="1144" d="M147 -356v1403q0 43 23.5 61t69.5 18q47 0 69.5 -18t22.5 -61v-644q0 -108 63 -175.5t162 -67.5q56 0 108 27t84.5 63.5t52.5 68t23 46.5v682q0 43 23.5 61t69.5 18q47 0 69.5 -18t22.5 -61v-981q0 -40 -21 -58t-65 -18q-88 0 -88 76v106q-99 -192 -281 -192 q-81 0 -139.5 37t-83.5 94v-467q0 -43 -22.5 -61.5t-69.5 -18.5q-93 0 -93 80z" />
<glyph unicode="&#xb6;" horiz-adv-x="1169" d="M47 956q0 120 39 219.5t114 173.5t192.5 115t266.5 41h392q31 0 44 -16t13 -51q0 -66 -57 -66h-95v-1599q0 -70 -82 -70q-41 0 -60 16.5t-19 53.5v1599h-131v-878h-136q-220 0 -350.5 118t-130.5 344z" />
<glyph unicode="&#xb7;" horiz-adv-x="501" d="M162 559v143q0 42 22 60t68 18q88 0 88 -78v-143q0 -42 -22 -60t-66 -18q-46 0 -68 17.5t-22 60.5z" />
<glyph unicode="&#xb8;" horiz-adv-x="868" d="M231 -335.5q-2 15.5 11 36.5q13 22 25 27t38 -7q69 -38 115 -38t69 19.5t23 51.5v8q0 72 -121 72q-26 0 -33.5 10t-7.5 31v166h119v-123q79 -1 124.5 -44.5t45.5 -106.5v-19q0 -65 -56.5 -114.5t-154.5 -49.5q-81 0 -174 54q-21 11 -23 26.5z" />
<glyph unicode="&#xb9;" horiz-adv-x="571" d="M55 1350q-6 48 41 57q120 27 144 43q11 7 21 18.5t16 19t18.5 13.5t30.5 6q59 0 59 -45v-628h107q49 0 49 -60q0 -31 -11 -45t-38 -14h-357q-27 0 -39 14t-12 45q0 60 51 60h109v485l-138 -16q-25 -3 -36.5 8t-14.5 39z" />
<glyph unicode="&#xba;" horiz-adv-x="811" d="M76 995v238q0 135 92 210t235 75q151 0 240.5 -73.5t89.5 -215.5v-234q0 -143 -89.5 -216.5t-240.5 -73.5q-152 0 -239.5 75t-87.5 215zM219 1008q0 -90 47.5 -136.5t136.5 -46.5q187 0 187 183v209q0 180 -187 180q-90 0 -137 -45.5t-47 -134.5v-209z" />
<glyph unicode="&#xbb;" horiz-adv-x="1103" d="M147 258l238 344l-238 344q-40 57 27 101q66 45 105 -13l227 -327q2 -3 12 -17t13.5 -20t10 -18.5t9 -24.5t2.5 -25q0 -8 -1.5 -15.5t-2.5 -13t-5 -14t-5.5 -12t-7.5 -13t-7.5 -12t-9 -13t-8.5 -11.5l-227 -328q-38 -57 -105 -12q-67 44 -27 100zM590 258l237 344 l-237 344q-40 57 26 101q66 45 105 -13l227 -327q2 -3 12 -17t13.5 -20t10 -18.5t9 -24.5t2.5 -25q0 -8 -1.5 -15.5t-2.5 -13t-5 -14t-5.5 -12t-7.5 -13t-7.5 -12t-9 -13t-8.5 -11.5l-227 -328q-38 -57 -105 -12q-66 43 -26 100z" />
<glyph unicode="&#xbc;" horiz-adv-x="1536" d="M90 1309q-6 48 41 57q118 27 143 43q11 7 21 18.5t16 19t18.5 13.5t30.5 6q60 0 60 -45v-628h102q49 0 49 -60q0 -31 -11 -45t-38 -14h-352q-27 0 -39 14t-12 45q0 60 51 60h109v485l-138 -16q-25 -3 -36.5 8t-14.5 39zM354.5 8.5q-15.5 22.5 1.5 54.5l746 1399 q11 19 19 29t24.5 18.5t38.5 8.5q40 0 56 -22.5t-1 -53.5l-745 -1401q-28 -55 -84 -55q-40 0 -55.5 22.5zM842.5 316q1.5 17 15.5 36l361 539q20 25 39 24t45 -24q25 -19 28 -37.5t-16 -44.5l-305 -465h194v109q0 31 15.5 44t50.5 13t52 -13t17 -44v-109h64q28 0 39.5 -14.5 t11.5 -44.5q0 -31 -11.5 -45.5t-39.5 -14.5h-64v-119q0 -31 -17 -44t-52 -13t-50.5 13t-15.5 44v119h-295q-25 0 -38.5 12.5t-22.5 41.5q-7 20 -5.5 37z" />
<glyph unicode="&#xbd;" horiz-adv-x="1634" d="M90 1309q-6 48 41 57q118 27 143 43q11 7 21 18.5t16 19t18.5 13.5t30.5 6q60 0 60 -45v-628h102q49 0 49 -60q0 -31 -11 -45t-38 -14h-352q-27 0 -39 14t-12 45q0 60 51 60h109v485l-138 -16q-25 -3 -36.5 8t-14.5 39zM354.5 8.5q-15.5 22.5 1.5 54.5l746 1399 q11 19 19 29t24.5 18.5t38.5 8.5q40 0 56 -22.5t-1 -53.5l-745 -1401q-28 -55 -84 -55q-40 0 -55.5 22.5zM1006 180v33q0 108 49.5 178.5t163.5 128.5q48 24 64 32.5t47.5 28t42 32t20.5 32.5t10 43q0 43 -32 71.5t-91 28.5q-111 0 -160 -92q-13 -27 -32 -31t-46 11 q-59 24 -30 76q92 159 274 159q117 0 187.5 -58.5t70.5 -162.5q0 -48 -15.5 -85.5t-53 -70t-79.5 -58t-114 -60.5q-83 -40 -110 -80.5t-27 -104.5h336q30 0 42.5 -14t12.5 -47q0 -32 -12.5 -46.5t-42.5 -14.5h-379q-51 0 -73.5 16t-22.5 55z" />
<glyph unicode="&#xbe;" horiz-adv-x="1548" d="M91 838q-10 -15 1 -45q28 -69 96.5 -111.5t173.5 -42.5q122 0 193.5 64.5t71.5 166.5v21q0 63 -35.5 110.5t-89.5 65.5q52 8 88.5 52t36.5 108v16q0 90 -65.5 150.5t-192.5 60.5q-99 0 -171.5 -45.5t-101.5 -114.5q-9 -28 0 -42t41 -25q27 -10 43 -4.5t29 32.5 q41 78 156 78q57 0 87.5 -27.5t30.5 -74.5v-6q0 -47 -37.5 -74t-91.5 -27h-53q-26 0 -36.5 -14.5t-10.5 -44.5q0 -57 47 -57h39q68 0 105.5 -32.5t37.5 -88.5v-13q0 -55 -35 -83.5t-92 -28.5q-113 0 -145 72q-13 29 -31 35t-47 -5q-32 -11 -42 -26zM377 8.5q-15 22.5 2 54.5 l745 1399q14 27 32 41.5t50 14.5q40 0 56.5 -22.5t-0.5 -53.5l-746 -1401q-28 -55 -84 -55q-40 0 -55 22.5zM854.5 316q1.5 17 15.5 36l361 539q20 25 39 24t45 -24q25 -19 28 -37.5t-16 -44.5l-305 -465h195v109q0 32 15 44.5t50 12.5t52.5 -13t17.5 -44v-109h63 q28 0 39.5 -14.5t11.5 -44.5q0 -31 -11.5 -45.5t-39.5 -14.5h-63v-119q0 -31 -17.5 -44t-52.5 -13t-50 12.5t-15 44.5v119h-295q-25 0 -39 12.5t-23 41.5q-7 20 -5.5 37z" />
<glyph unicode="&#xbf;" horiz-adv-x="897" d="M86 -84q0 58 19 112t49 96.5t66.5 83t73 80t66.5 79t49 87.5t19 99v27q0 39 20.5 55t61.5 16q43 0 62.5 -15.5t19.5 -53.5v-37q0 -80 -33.5 -153t-81.5 -127.5t-96 -106t-81.5 -110t-33.5 -118.5q0 -101 56 -160t167 -59q126 0 220 101q46 49 102 -7q30 -28 32.5 -50 t-22.5 -50q-147 -154 -352 -154q-179 0 -281 104.5t-102 260.5zM424 920v102q0 76 86 76q44 0 65 -17t21 -59v-102q0 -40 -21 -58t-65 -18q-86 0 -86 76z" />
<glyph unicode="&#xc0;" horiz-adv-x="1175" d="M35 84l436 1348q14 45 42 61t79 16q52 0 82 -16t43 -57l420 -1348q15 -48 -5.5 -74t-74.5 -26q-85 0 -107 71l-112 377h-508l-113 -379q-21 -69 -104 -69q-51 0 -71.5 25t-6.5 71zM302.5 1953q18.5 29 68.5 29q63 0 90 -40l155 -238q17 -25 4.5 -41t-47.5 -16 q-44 0 -75 36l-189 215q-25 26 -6.5 55zM379 594h414l-201 684z" />
<glyph unicode="&#xc1;" horiz-adv-x="1175" d="M35 84l436 1348q14 45 42 61t79 16q52 0 82 -16t43 -57l420 -1348q15 -48 -5.5 -74t-74.5 -26q-85 0 -107 71l-112 377h-508l-113 -379q-21 -69 -104 -69q-51 0 -71.5 25t-6.5 71zM379 594h414l-201 684zM550 1665q-13 16 3 41l158 240q22 36 94 36q44 0 60 -23.5 t-9 -55.5l-184 -217q-32 -37 -76 -37q-33 0 -46 16z" />
<glyph unicode="&#xc2;" horiz-adv-x="1175" d="M35 84l436 1348q14 45 42 61t79 16q52 0 82 -16t43 -57l420 -1348q15 -48 -5.5 -74t-74.5 -26q-85 0 -107 71l-112 377h-508l-113 -379q-21 -69 -104 -69q-51 0 -71.5 25t-6.5 71zM358 1667q-13 22 7 47l141 205q23 35 90 35t90 -35l137 -205q20 -25 7 -47t-58 -22 q-47 0 -63 26l-115 176l-115 -176q-16 -26 -63 -26q-45 0 -58 22zM379 594h414l-201 684z" />
<glyph unicode="&#xc3;" horiz-adv-x="1175" d="M35 84l436 1348q14 45 42 61t79 16q52 0 82 -16t43 -57l420 -1348q15 -48 -5.5 -74t-74.5 -26q-85 0 -107 71l-112 377h-508l-113 -379q-21 -69 -104 -69q-51 0 -71.5 25t-6.5 71zM289 1800q29 44 76.5 77.5t109.5 33.5q43 0 87.5 -23t82 -46t62.5 -23q46 0 84 45 q36 45 79 10q49 -37 23 -76q-29 -44 -76.5 -77t-109.5 -33q-38 0 -74 14.5t-58.5 31.5t-49.5 31.5t-50 14.5q-46 0 -84 -45q-37 -46 -80 -11q-49 36 -22 76zM379 594h414l-201 684z" />
<glyph unicode="&#xc4;" horiz-adv-x="1175" d="M35 84l436 1348q14 45 42 61t79 16q52 0 82 -16t43 -57l420 -1348q15 -48 -5.5 -74t-74.5 -26q-85 0 -107 71l-112 377h-508l-113 -379q-21 -69 -104 -69q-51 0 -71.5 25t-6.5 71zM324 1751v111q0 39 20.5 55t63.5 16q81 0 81 -71v-111q0 -74 -81 -74q-43 0 -63.5 17 t-20.5 57zM379 594h414l-201 684zM694 1751v111q0 39 20.5 55t63.5 16q82 0 82 -71v-111q0 -74 -82 -74q-43 0 -63.5 17t-20.5 57z" />
<glyph unicode="&#xc5;" horiz-adv-x="1165" d="M35 84l436 1348q14 45 42 61t79 16q52 0 82 -16t43 -57l420 -1348q15 -48 -5.5 -74t-74.5 -26q-85 0 -107 71l-112 377h-508l-113 -379q-21 -69 -104 -69q-51 0 -71.5 25t-6.5 71zM379 594h414l-201 684zM416 1790q0 75 52.5 125.5t127.5 50.5q77 0 128.5 -49t51.5 -127 q0 -73 -52.5 -123.5t-127.5 -50.5q-79 0 -129.5 50t-50.5 124zM512 1790q0 -36 23 -60t61 -24q35 0 59.5 24.5t24.5 59.5q0 38 -23 61t-61 23t-61 -24t-23 -60z" />
<glyph unicode="&#xc6;" horiz-adv-x="1703" d="M55.5 18.5q-21.5 30.5 1.5 71.5l633 1317q44 90 115 90h739q39 0 55.5 -20t16.5 -62q0 -43 -16.5 -63.5t-55.5 -20.5h-540v-483h487q39 0 55.5 -20t16.5 -62q0 -43 -16.5 -63.5t-55.5 -20.5h-487v-516h538q39 0 55.5 -20t16.5 -62q0 -43 -16.5 -63.5t-55.5 -20.5h-588 q-74 0 -107.5 23.5t-33.5 82.5v228h-444l-140 -297q-22 -49 -90 -49q-62 0 -83.5 30.5zM444 494h369v772z" />
<glyph unicode="&#xc7;" horiz-adv-x="1198" d="M141 467v561q0 226 137.5 358t376.5 132q180 0 295.5 -79.5t167.5 -221.5q28 -76 -61 -103q-41 -15 -69 -5t-42 52q-32 91 -108 140t-185 49q-150 0 -235.5 -86t-85.5 -246v-537q0 -158 79 -247t240 -89q110 0 184 52t107 139q17 42 43.5 52t67.5 -5q45 -14 60.5 -38 t0.5 -64q-43 -118 -151 -204.5t-273 -96.5v-86q79 -1 124.5 -45t45.5 -107v-18q0 -65 -56.5 -114.5t-154.5 -49.5q-83 0 -174 53q-21 11 -23 26.5t11 36.5q13 22 25 27t38 -6q71 -39 115 -39q45 0 68.5 20t23.5 52v8q0 72 -121 72q-26 0 -33.5 9.5t-7.5 30.5v132 q-430 37 -430 485z" />
<glyph unicode="&#xc8;" horiz-adv-x="1052" d="M162 106v1285q0 59 33.5 82.5t107.5 23.5h590q39 0 55.5 -20t16.5 -62q0 -43 -16.5 -63.5t-55.5 -20.5h-541v-483h488q39 0 55 -20t16 -62q0 -43 -16 -63.5t-55 -20.5h-488v-516h539q39 0 55.5 -20t16.5 -62q0 -43 -16.5 -63.5t-55.5 -20.5h-588q-74 0 -107.5 23.5 t-33.5 82.5zM294 1953q18 29 68 29q64 0 91 -40l155 -238q17 -25 4.5 -41t-47.5 -16q-45 0 -76 36l-188 215q-25 26 -7 55z" />
<glyph unicode="&#xc9;" horiz-adv-x="1052" d="M162 106v1285q0 59 33.5 82.5t107.5 23.5h590q39 0 55.5 -20t16.5 -62q0 -43 -16.5 -63.5t-55.5 -20.5h-541v-483h488q39 0 55 -20t16 -62q0 -43 -16 -63.5t-55 -20.5h-488v-516h539q39 0 55.5 -20t16.5 -62q0 -43 -16.5 -63.5t-55.5 -20.5h-588q-74 0 -107.5 23.5 t-33.5 82.5zM523 1663q-13 16 3 41l158 240q22 36 94 36q44 0 60 -23.5t-9 -55.5l-184 -218q-31 -36 -76 -36q-33 0 -46 16z" />
<glyph unicode="&#xca;" horiz-adv-x="1052" d="M162 106v1285q0 59 33.5 82.5t107.5 23.5h590q39 0 55.5 -20t16.5 -62q0 -43 -16.5 -63.5t-55.5 -20.5h-541v-483h488q39 0 55 -20t16 -62q0 -43 -16 -63.5t-55 -20.5h-488v-516h539q39 0 55.5 -20t16.5 -62q0 -43 -16.5 -63.5t-55.5 -20.5h-588q-74 0 -107.5 23.5 t-33.5 82.5zM319 1675q-13 22 7 47l141 205q23 35 90 35t90 -35l137 -205q20 -25 7 -47t-58 -22q-47 0 -63 26l-115 176l-115 -176q-16 -26 -63 -26q-45 0 -58 22z" />
<glyph unicode="&#xcb;" horiz-adv-x="1052" d="M162 106v1285q0 59 33.5 82.5t107.5 23.5h590q39 0 55.5 -20t16.5 -62q0 -43 -16.5 -63.5t-55.5 -20.5h-541v-483h488q39 0 55 -20t16 -62q0 -43 -16 -63.5t-55 -20.5h-488v-516h539q39 0 55.5 -20t16.5 -62q0 -43 -16.5 -63.5t-55.5 -20.5h-588q-74 0 -107.5 23.5 t-33.5 82.5zM287 1751v111q0 39 20.5 55t63.5 16q82 0 82 -71v-111q0 -74 -82 -74q-43 0 -63.5 17t-20.5 57zM657 1751v111q0 39 20.5 55t63.5 16q82 0 82 -71v-111q0 -74 -82 -74q-43 0 -63.5 17t-20.5 57z" />
<glyph unicode="&#xcc;" horiz-adv-x="534" d="M-15 1958q18 29 68 29q63 0 90 -41l156 -238q17 -25 4.5 -41t-47.5 -16q-44 0 -76 37l-188 215q-25 26 -7 55zM172 70v1357q0 45 22.5 63.5t71.5 18.5q48 0 72 -19t24 -63v-1357q0 -44 -24 -63t-72 -19q-49 0 -71.5 18.5t-22.5 63.5z" />
<glyph unicode="&#xcd;" horiz-adv-x="534" d="M172 70v1357q0 45 22.5 63.5t71.5 18.5q48 0 72 -19t24 -63v-1357q0 -44 -24 -63t-72 -19q-49 0 -71.5 18.5t-22.5 63.5zM224 1663q-13 16 3 41l158 240q22 36 94 36q44 0 60 -23.5t-9 -55.5l-184 -218q-31 -36 -76 -36q-33 0 -46 16z" />
<glyph unicode="&#xce;" horiz-adv-x="534" d="M34 1669q-13 22 7 47l141 205q23 35 90 35t90 -35l138 -205q20 -25 7 -47t-58 -22q-48 0 -64 26l-115 176l-114 -176q-16 -26 -64 -26q-45 0 -58 22zM172 70v1357q0 45 22.5 63.5t71.5 18.5q48 0 72 -19t24 -63v-1357q0 -44 -24 -63t-72 -19q-49 0 -71.5 18.5t-22.5 63.5 z" />
<glyph unicode="&#xcf;" horiz-adv-x="534" d="M-2 1751v111q0 39 20.5 55t63.5 16q82 0 82 -71v-111q0 -74 -82 -74q-43 0 -63.5 17t-20.5 57zM172 70v1357q0 45 22.5 63.5t71.5 18.5q48 0 72 -19t24 -63v-1357q0 -44 -24 -63t-72 -19q-49 0 -71.5 18.5t-22.5 63.5zM369 1751v111q0 39 20.5 55t63.5 16q82 0 82 -71 v-111q0 -74 -82 -74q-43 0 -63.5 17t-20.5 57z" />
<glyph unicode="&#xd0;" horiz-adv-x="1306" d="M12 768q0 74 64 74h86v549q0 58 35 82t110 24h361q238 0 366.5 -135t128.5 -354v-527q0 -213 -129 -347t-366 -134h-361q-75 0 -110 24t-35 82v588h-86q-34 0 -49 18t-15 56zM352 166h281q342 0 342 340v481q0 161 -82.5 252.5t-259.5 91.5h-281v-489h279q61 0 61 -74 q0 -38 -14 -56t-47 -18h-279v-528z" />
<glyph unicode="&#xd1;" horiz-adv-x="1394" d="M162 74v1333q0 54 34.5 78t108.5 24q107 0 141 -65l396 -768q49 -94 113.5 -234.5t103.5 -242.5h4q-12 199 -12 428v803q0 79 92 79q46 0 68 -18t22 -61v-1336q0 -53 -33.5 -76.5t-105.5 -23.5q-103 0 -138 63l-419 811q-60 117 -201 430h-4q12 -194 12 -391v-833 q0 -80 -92 -80q-46 0 -68 18.5t-22 61.5zM408 1800q29 44 76.5 77.5t109.5 33.5q43 0 87 -23t81.5 -46t62.5 -23q46 0 84 45q36 45 80 10q49 -37 23 -76q-29 -44 -77 -77t-110 -33q-48 0 -91 23t-77.5 46t-62.5 23q-46 0 -84 -45q-37 -46 -80 -11q-49 36 -22 76z" />
<glyph unicode="&#xd2;" horiz-adv-x="1363" d="M141 528q0 -260 139.5 -404t401.5 -144t401.5 144t139.5 404v441q0 260 -139.5 404.5t-401.5 144.5t-401.5 -144.5t-139.5 -404.5v-441zM330 520v457q0 173 85 273t267 100t267 -100t85 -273v-457q0 -173 -85 -273t-267 -100t-267 100t-85 273zM407 1956q18 29 68 29 q63 0 90 -41l156 -238q17 -25 4.5 -41t-47.5 -16q-44 0 -76 37l-188 215q-25 26 -7 55z" />
<glyph unicode="&#xd3;" horiz-adv-x="1363" d="M141 528v441q0 260 139.5 404.5t401.5 144.5t401.5 -144.5t139.5 -404.5v-441q0 -260 -139.5 -404t-401.5 -144t-401.5 144t-139.5 404zM330 520q0 -173 85 -273t267 -100t267 100t85 273v457q0 173 -85 273t-267 100t-267 -100t-85 -273v-457zM638 1665q-13 16 3 41 l158 240q22 36 94 36q44 0 60 -23.5t-9 -55.5l-184 -217q-32 -37 -76 -37q-33 0 -46 16z" />
<glyph unicode="&#xd4;" horiz-adv-x="1363" d="M141 528v441q0 260 139.5 404.5t401.5 144.5t401.5 -144.5t139.5 -404.5v-441q0 -260 -139.5 -404t-401.5 -144t-401.5 144t-139.5 404zM330 520q0 -173 85 -273t267 -100t267 100t85 273v457q0 173 -85 273t-267 100t-267 -100t-85 -273v-457zM446 1667q-13 22 7 47 l141 205q23 35 90 35t90 -35l137 -205q20 -25 7 -47t-58 -22q-47 0 -63 26l-115 176l-115 -176q-16 -26 -63 -26q-45 0 -58 22z" />
<glyph unicode="&#xd5;" horiz-adv-x="1363" d="M141 528q0 -260 139.5 -404t401.5 -144t401.5 144t139.5 404v441q0 260 -139.5 404.5t-401.5 144.5t-401.5 -144.5t-139.5 -404.5v-441zM330 520v457q0 173 85 273t267 100t267 -100t85 -273v-457q0 -173 -85 -273t-267 -100t-267 100t-85 273zM379 1802q29 44 76.5 77.5 t109.5 33.5q43 0 87.5 -23t82 -46t62.5 -23q46 0 84 45q36 45 80 10q49 -36 22 -76q-29 -44 -76.5 -77t-109.5 -33q-38 0 -74 14.5t-58.5 31.5t-49.5 31.5t-50 14.5q-46 0 -84 -45q-37 -46 -80 -11q-49 36 -22 76z" />
<glyph unicode="&#xd6;" horiz-adv-x="1363" d="M141 528q0 -260 139.5 -404t401.5 -144t401.5 144t139.5 404v441q0 260 -139.5 404.5t-401.5 144.5t-401.5 -144.5t-139.5 -404.5v-441zM330 520v457q0 173 85 273t267 100t267 -100t85 -273v-457q0 -173 -85 -273t-267 -100t-267 100t-85 273zM414 1749v111 q0 39 20.5 55t63.5 16q82 0 82 -71v-111q0 -74 -82 -74q-43 0 -63.5 17t-20.5 57zM784 1749v111q0 39 20.5 55t63.5 16q82 0 82 -71v-111q0 -74 -82 -74q-43 0 -63.5 17t-20.5 57z" />
<glyph unicode="&#xd7;" d="M190 309l324 322l-324 330q-54 52 7 110q61 57 112 6l324 -329l328 329q49 52 110 -6t6 -110l-329 -328l327 -324q29 -30 27 -56t-33 -56q-62 -58 -113 -7l-323 324l-324 -324q-51 -51 -112 7t-7 112z" />
<glyph unicode="&#xd8;" horiz-adv-x="1363" d="M141 461v477q0 136 28.5 239.5t91 181.5t168.5 118.5t253 40.5q189 0 324 -80l47 84q16 28 33 41.5t49 13.5q40 0 56 -22.5t-1 -53.5l-82 -145q115 -131 115 -326v-475q0 -139 -29 -243t-91.5 -180.5t-168 -115.5t-252.5 -39q-182 0 -313 70l-52 -90q-28 -55 -84 -55 q-40 0 -55 23t2 55l82 147q-121 127 -121 334zM332 479q0 -96 35 -168l548 969q-89 70 -233 70q-167 0 -258.5 -88.5t-91.5 -245.5v-537zM459 205q85 -60 223 -60q167 0 259.5 88.5t92.5 243.5v537q0 88 -30 155z" />
<glyph unicode="&#xd9;" horiz-adv-x="1320" d="M145 420v1007q0 45 23 63.5t72 18.5q48 0 72 -19t24 -63v-987q0 -143 80.5 -219t240.5 -76q163 0 247.5 76.5t84.5 218.5v990q0 43 23 61t69 18q47 0 70 -18t23 -61v-1010q0 -196 -135 -319.5t-382 -123.5q-252 0 -382 122t-130 321zM394.5 1951q18.5 29 68.5 29 q63 0 90 -41l156 -237q17 -25 4.5 -41t-47.5 -16q-45 0 -76 36l-189 215q-25 26 -6.5 55z" />
<glyph unicode="&#xda;" horiz-adv-x="1320" d="M145 420v1007q0 45 23 63.5t72 18.5q48 0 72 -19t24 -63v-987q0 -143 80.5 -219t240.5 -76q163 0 247.5 76.5t84.5 218.5v990q0 43 23 61t69 18q47 0 70 -18t23 -61v-1010q0 -196 -135 -319.5t-382 -123.5q-252 0 -382 122t-130 321zM618 1661q-13 16 3 41l157 240 q22 36 94 36q44 0 60.5 -24t-8.5 -56l-185 -217q-31 -36 -75 -36q-33 0 -46 16z" />
<glyph unicode="&#xdb;" horiz-adv-x="1320" d="M145 420v1007q0 45 23 63.5t72 18.5q48 0 72 -19t24 -63v-987q0 -143 80.5 -219t240.5 -76q163 0 247.5 76.5t84.5 218.5v990q0 43 23 61t69 18q47 0 70 -18t23 -61v-1010q0 -196 -135 -319.5t-382 -123.5q-252 0 -382 122t-130 321zM431 1675q-13 22 7 47l142 205 q23 35 90 35t90 -35l137 -205q20 -25 7 -47t-58 -22q-48 0 -64 26l-114 176l-115 -176q-16 -26 -64 -26q-45 0 -58 22z" />
<glyph unicode="&#xdc;" horiz-adv-x="1320" d="M145 420v1007q0 45 23 63.5t72 18.5q48 0 72 -19t24 -63v-987q0 -143 80.5 -219t240.5 -76q163 0 247.5 76.5t84.5 218.5v990q0 43 23 61t69 18q47 0 70 -18t23 -61v-1010q0 -196 -135 -319.5t-382 -123.5q-252 0 -382 122t-130 321zM389 1751v111q0 39 20.5 55t63.5 16 q82 0 82 -71v-111q0 -74 -82 -74q-43 0 -63.5 17t-20.5 57zM760 1751v111q0 39 20.5 55t63.5 16q82 0 82 -71v-111q0 -74 -82 -74q-43 0 -63.5 17t-20.5 57z" />
<glyph unicode="&#xdd;" horiz-adv-x="1120" d="M22.5 1447q2.5 23 27.5 38.5t67 15.5q70 0 96 -51l350 -664l350 666q26 51 95 51q62 0 84 -32t-2 -70l-435 -789v-542q0 -44 -24 -63t-72 -19q-49 0 -71.5 18.5t-22.5 63.5v540l-432 787q-13 27 -10.5 50zM538 1663q-13 16 3 41l157 240q22 36 95 36q44 0 60 -23.5 t-9 -55.5l-185 -218q-31 -36 -75 -36q-33 0 -46 16z" />
<glyph unicode="&#xde;" horiz-adv-x="1150" d="M162 70v1357q0 45 22.5 63.5t71.5 18.5q48 0 72 -19t24 -63l-2 -182h234q237 0 362 -112t125 -336v-86q0 -213 -128.5 -325t-342.5 -112h-248v-204q0 -44 -24 -63t-72 -19q-49 0 -71.5 18.5t-22.5 63.5zM352 438h230q303 0 303 279v69q0 155 -82.5 224t-239.5 69h-211 v-641z" />
<glyph unicode="&#xdf;" horiz-adv-x="1200" d="M145 23v1075q0 209 105 320.5t321 111.5q108 0 191 -34.5t129.5 -91t69 -118.5t22.5 -127v-33q0 -209 -152 -278q74 -20 136 -65.5t105.5 -129t43.5 -190.5v-72q0 -65 -11 -122.5t-39 -111.5t-71 -92.5t-110.5 -61.5t-153.5 -23q-169 0 -282 108q-28 29 -24 53.5t36 55.5 q32 29 53.5 30.5t56.5 -26.5q76 -68 158 -68q205 0 205 262v62q0 154 -87 229.5t-220 75.5h-45q-37 0 -52.5 19.5t-15.5 60.5t15.5 59.5t52.5 18.5h28q191 0 191 223q0 104 -59 165.5t-175 61.5q-126 0 -182.5 -68.5t-56.5 -216.5v-1062q0 -23 -25 -23h-133q-25 0 -25 23z " />
<glyph unicode="&#xe0;" horiz-adv-x="1054" d="M82 303v10q0 94 34 160t110.5 110t204 60.5t310.5 5.5v70q0 139 -54.5 202.5t-170.5 63.5q-150 0 -213 -137q-17 -36 -41.5 -42.5t-60.5 11.5q-39 18 -50.5 40t3.5 58q111 224 376 224q186 0 289 -109t103 -307v-660q0 -41 -21.5 -58t-66.5 -17q-46 0 -67.5 17t-21.5 58 v68q-139 -151 -333 -151q-143 0 -236.5 90t-93.5 233zM243 1554q18 29 68 29q63 0 90 -41l156 -237q17 -25 4.5 -41.5t-47.5 -16.5q-44 0 -76 37l-188 215q-25 26 -7 55zM264 315q0 -79 54 -130.5t141 -51.5q166 0 282 133v260q-268 9 -372.5 -36t-104.5 -164v-11z" />
<glyph unicode="&#xe1;" horiz-adv-x="1054" d="M82 303v10q0 94 34 160t110.5 110t204 60.5t310.5 5.5v70q0 139 -54.5 202.5t-170.5 63.5q-150 0 -213 -137q-17 -36 -41.5 -42.5t-60.5 11.5q-39 18 -50.5 40t3.5 58q111 224 376 224q186 0 289 -109t103 -307v-660q0 -41 -21.5 -58t-66.5 -17q-46 0 -67.5 17t-21.5 58 v68q-139 -151 -333 -151q-143 0 -236.5 90t-93.5 233zM264 315q0 -79 54 -130.5t141 -51.5q166 0 282 133v260q-268 9 -372.5 -36t-104.5 -164v-11zM482 1263.5q-13 16.5 3 41.5l158 239q23 37 94 37q44 0 60 -24t-9 -56l-184 -217q-32 -37 -76 -37q-33 0 -46 16.5z" />
<glyph unicode="&#xe2;" horiz-adv-x="1054" d="M82 303v10q0 94 34 160t110.5 110t204 60.5t310.5 5.5v70q0 139 -54.5 202.5t-170.5 63.5q-150 0 -213 -137q-17 -36 -41.5 -42.5t-60.5 11.5q-39 18 -50.5 40t3.5 58q111 224 376 224q186 0 289 -109t103 -307v-660q0 -41 -21.5 -58t-66.5 -17q-46 0 -67.5 17t-21.5 58 v68q-139 -151 -333 -151q-143 0 -236.5 90t-93.5 233zM264 315q0 -79 54 -130.5t141 -51.5q166 0 282 133v260q-268 9 -372.5 -36t-104.5 -164v-11zM288 1277.5q-13 22.5 7 47.5l141 205q23 35 90 35t90 -35l138 -205q20 -25 6.5 -47.5t-58.5 -22.5q-47 0 -63 27l-115 176 l-114 -176q-16 -27 -64 -27q-45 0 -58 22.5z" />
<glyph unicode="&#xe3;" horiz-adv-x="1054" d="M82 303v10q0 94 34 160t110.5 110t204 60.5t310.5 5.5v70q0 139 -54.5 202.5t-170.5 63.5q-150 0 -213 -137q-17 -36 -41.5 -42.5t-60.5 11.5q-39 18 -50.5 40t3.5 58q111 224 376 224q186 0 289 -109t103 -307v-660q0 -41 -21.5 -58t-66.5 -17q-46 0 -67.5 17t-21.5 58 v68q-139 -151 -333 -151q-143 0 -236.5 90t-93.5 233zM209 1399q29 44 76.5 77t109.5 33q43 0 87.5 -23t82 -46t62.5 -23q46 0 84 45q37 46 80 11q49 -36 22 -76q-29 -44 -76.5 -77.5t-109.5 -33.5q-38 0 -74 14.5t-58.5 31.5t-49.5 31.5t-50 14.5q-46 0 -84 -45 q-36 -45 -80 -10q-49 36 -22 76zM264 315q0 -79 54 -130.5t141 -51.5q166 0 282 133v260q-268 9 -372.5 -36t-104.5 -164v-11z" />
<glyph unicode="&#xe4;" horiz-adv-x="1054" d="M82 303v10q0 94 34 160t110.5 110t204 60.5t310.5 5.5v70q0 139 -54.5 202.5t-170.5 63.5q-150 0 -213 -137q-17 -36 -41.5 -42.5t-60.5 11.5q-39 18 -50.5 40t3.5 58q111 224 376 224q186 0 289 -109t103 -307v-660q0 -41 -21.5 -58t-66.5 -17q-46 0 -67.5 17t-21.5 58 v68q-139 -151 -333 -151q-143 0 -236.5 90t-93.5 233zM250 1337v111q0 39 20.5 55.5t63.5 16.5q82 0 82 -72v-111q0 -73 -82 -73q-43 0 -63.5 16.5t-20.5 56.5zM264 315q0 -79 54 -130.5t141 -51.5q166 0 282 133v260q-268 9 -372.5 -36t-104.5 -164v-11zM621 1337v111 q0 39 20.5 55.5t63.5 16.5q81 0 81 -72v-111q0 -40 -20.5 -56.5t-60.5 -16.5q-43 0 -63.5 16.5t-20.5 56.5z" />
<glyph unicode="&#xe5;" horiz-adv-x="1052" d="M82 303v10q0 94 34 160t110.5 110t204 60.5t310.5 5.5v70q0 139 -54.5 202.5t-170.5 63.5q-150 0 -213 -137q-17 -36 -41.5 -42.5t-60.5 11.5q-39 18 -50.5 40t3.5 58q111 224 376 224q186 0 289 -109t103 -307v-660q0 -41 -21.5 -58t-66.5 -17q-46 0 -67.5 17t-21.5 58 v68q-139 -151 -333 -151q-143 0 -236.5 90t-93.5 233zM264 315q0 -79 54 -130.5t141 -51.5q166 0 282 133v260q-268 9 -372.5 -36t-104.5 -164v-11zM332 1421q0 75 51.5 125.5t126.5 50.5q77 0 128.5 -49t51.5 -127q0 -73 -52.5 -123.5t-127.5 -50.5q-77 0 -127.5 50 t-50.5 124zM426 1421q0 -36 23 -60t61 -24q35 0 60.5 24.5t25.5 59.5q0 38 -24 61t-62 23q-36 0 -60 -24t-24 -60z" />
<glyph unicode="&#xe6;" horiz-adv-x="1693" d="M74 303v10q0 127 61.5 202.5t207 109.5t390.5 24v88q0 116 -59.5 182t-173.5 66q-80 0 -137.5 -37t-86.5 -100q-17 -36 -41.5 -42.5t-60.5 11.5q-39 18 -50.5 40t3.5 58q111 224 377 224q112 0 190 -36.5t137 -115.5q117 152 338 152q147 0 247 -62t145 -166.5t45 -246.5 v-70q0 -102 -107 -102h-584v-74q0 -285 265 -285q174 0 245 123q22 36 45 43.5t60 -10.5q83 -36 45 -105q-110 -204 -395 -204q-261 0 -371 174q-185 -174 -387 -174q-154 0 -251 89.5t-97 233.5zM256 315q0 -79 54 -130.5t141 -51.5q86 0 166 40.5t135 105.5 q-19 61 -19 174v73q-268 9 -372.5 -36t-104.5 -164v-11zM915 629h515v84q0 123 -70.5 198.5t-190.5 75.5q-121 0 -187.5 -75.5t-66.5 -211.5v-71z" />
<glyph unicode="&#xe7;" horiz-adv-x="1019" d="M109 414v293q0 207 123 319.5t313 112.5q147 0 248.5 -70.5t138.5 -194.5q12 -40 -4.5 -61.5t-61.5 -32.5q-41 -13 -66 -2t-38 53q-21 68 -75 111t-142 43q-115 0 -184.5 -73.5t-69.5 -221.5v-266q0 -146 67 -218.5t187 -72.5q168 0 223 125q18 41 41.5 50.5t62.5 -3.5 q85 -28 58 -98q-85 -205 -340 -225v-82q79 -1 124.5 -45t45.5 -107v-18q0 -65 -56.5 -114.5t-154.5 -49.5q-83 0 -174 53q-37 20 -13 64q13 22 25.5 27t38.5 -7q71 -39 115 -39q45 0 68.5 20t23.5 52v8q0 72 -121 72q-26 0 -33.5 10t-7.5 31v127q-166 18 -264 128t-98 302z " />
<glyph unicode="&#xe8;" horiz-adv-x="1073" d="M109 412v297q0 197 120.5 313.5t313.5 116.5q206 0 321 -115t115 -342v-88q0 -102 -107 -102h-583v-80q0 -130 65 -204.5t197 -74.5q175 0 246 123q22 36 44.5 43.5t59.5 -10.5q83 -36 45 -105q-110 -204 -395 -204q-213 0 -327.5 116t-114.5 316zM257.5 1554 q18.5 29 68.5 29q63 0 90 -41l155 -237q17 -25 4.5 -41.5t-47.5 -16.5q-43 0 -75 37l-189 215q-25 26 -6.5 55zM289 629h512v80q0 128 -64.5 202t-193.5 74q-118 0 -186 -74.5t-68 -201.5v-80z" />
<glyph unicode="&#xe9;" horiz-adv-x="1073" d="M109 412v297q0 197 120.5 313.5t313.5 116.5q206 0 321 -115t115 -342v-88q0 -102 -107 -102h-583v-80q0 -130 65 -204.5t197 -74.5q175 0 246 123q22 36 44.5 43.5t59.5 -10.5q83 -36 45 -105q-110 -204 -395 -204q-213 0 -327.5 116t-114.5 316zM289 629h512v80 q0 128 -64.5 202t-193.5 74q-118 0 -186 -74.5t-68 -201.5v-80zM505 1263.5q-13 16.5 3 41.5l158 239q23 37 94 37q44 0 60 -24t-9 -56l-184 -217q-32 -37 -76 -37q-33 0 -46 16.5z" />
<glyph unicode="&#xea;" horiz-adv-x="1073" d="M109 412v297q0 197 120.5 313.5t313.5 116.5q206 0 321 -115t115 -342v-88q0 -102 -107 -102h-583v-80q0 -130 65 -204.5t197 -74.5q175 0 246 123q22 36 44.5 43.5t59.5 -10.5q83 -36 45 -105q-110 -204 -395 -204q-213 0 -327.5 116t-114.5 316zM289 629h512v80 q0 128 -64.5 202t-193.5 74q-118 0 -186 -74.5t-68 -201.5v-80zM308.5 1277.5q-13.5 22.5 6.5 47.5l142 205q23 35 90 35t90 -35l137 -205q20 -25 7 -47.5t-58 -22.5q-48 0 -64 27l-114 176l-115 -176q-16 -27 -63 -27q-45 0 -58.5 22.5z" />
<glyph unicode="&#xeb;" horiz-adv-x="1073" d="M109 412v297q0 197 120.5 313.5t313.5 116.5q206 0 321 -115t115 -342v-88q0 -102 -107 -102h-583v-80q0 -130 65 -204.5t197 -74.5q175 0 246 123q22 36 44.5 43.5t59.5 -10.5q83 -36 45 -105q-110 -204 -395 -204q-213 0 -327.5 116t-114.5 316zM281 1337v111 q0 39 20.5 55.5t63.5 16.5q81 0 81 -72v-111q0 -40 -20.5 -56.5t-60.5 -16.5q-43 0 -63.5 16.5t-20.5 56.5zM289 629h512v80q0 128 -64.5 202t-193.5 74q-118 0 -186 -74.5t-68 -201.5v-80zM651 1337v111q0 39 20.5 55.5t63.5 16.5q82 0 82 -72v-111q0 -73 -82 -73 q-43 0 -63.5 16.5t-20.5 56.5z" />
<glyph unicode="&#xec;" horiz-adv-x="475" d="M-41.5 1554q18.5 29 68.5 29q63 0 90 -41l155 -237q17 -25 4.5 -41.5t-47.5 -16.5q-43 0 -75 37l-189 215q-25 26 -6.5 55zM147 68v979q0 43 23 61t70 18q46 0 69 -18t23 -61v-979q0 -43 -23 -61.5t-69 -18.5q-47 0 -70 18.5t-23 61.5z" />
<glyph unicode="&#xed;" horiz-adv-x="475" d="M147 68v979q0 43 23 61t70 18q46 0 69 -18t23 -61v-979q0 -43 -23 -61.5t-69 -18.5q-47 0 -70 18.5t-23 61.5zM200 1263.5q-13 16.5 3 41.5l157 239q23 37 95 37q44 0 60 -24t-9 -56l-184 -217q-32 -37 -76 -37q-33 0 -46 16.5z" />
<glyph unicode="&#xee;" horiz-adv-x="475" d="M3 1277.5q-13 22.5 7 47.5l142 205q23 35 90 35t90 -35l137 -205q20 -25 7 -47.5t-58 -22.5q-48 0 -64 27l-114 176l-115 -176q-16 -27 -64 -27q-45 0 -58 22.5zM147 68v979q0 43 23 61t70 18q46 0 69 -18t23 -61v-979q0 -43 -23 -61.5t-69 -18.5q-47 0 -70 18.5 t-23 61.5z" />
<glyph unicode="&#xef;" horiz-adv-x="475" d="M-31 1337v111q0 39 20.5 55.5t63.5 16.5q82 0 82 -72v-111q0 -73 -82 -73q-43 0 -63.5 16.5t-20.5 56.5zM145 68v979q0 43 23 61t70 18q46 0 69 -18t23 -61v-979q0 -43 -23 -61.5t-69 -18.5q-47 0 -70 18.5t-23 61.5zM340 1337v111q0 39 20.5 55.5t63.5 16.5q82 0 82 -72 v-111q0 -73 -82 -73q-43 0 -63.5 16.5t-20.5 56.5z" />
<glyph unicode="&#xf0;" horiz-adv-x="1191" d="M113 412v217q0 197 123 315.5t339 118.5q158 0 289 -105q-44 151 -186 293l-60 -63q-23 -26 -45.5 -26t-52.5 24q-56 43 -12 92l63 70q-12 9 -34 27.5t-31 25.5q-65 48 -10 121q51 72 116 24q27 -20 76 -69l62 65q48 51 102 2q57 -51 12 -96l-69 -72 q141 -151 204.5 -322.5t63.5 -422.5v-182q-1 -213 -135.5 -343.5t-345.5 -130.5q-228 0 -348.5 118t-120.5 319zM295 418q0 -79 24.5 -137.5t67 -90.5t91 -46.5t104.5 -14.5q58 0 110 17.5t95 52.5t68.5 94t25.5 135v190q0 135 -86 213t-211 78t-207 -76t-82 -221v-194z" />
<glyph unicode="&#xf1;" horiz-adv-x="1142" d="M147 68v981q0 42 21.5 59.5t67.5 17.5t69 -18t23 -59v-103q148 193 360 193q158 0 239 -96.5t81 -256.5v-718q0 -80 -93 -80q-47 0 -69.5 18.5t-22.5 61.5v663q0 56 -8 98t-28.5 79.5t-61 57t-100.5 19.5q-94 0 -172 -60t-121 -149v-708q0 -43 -23 -61.5t-69 -18.5 q-47 0 -70 18.5t-23 61.5zM285 1399q29 44 76.5 77t109.5 33q43 0 87 -23t81.5 -46t62.5 -23q46 0 84 45q37 46 80 11q49 -37 23 -76q-29 -44 -77 -77.5t-110 -33.5q-48 0 -91 23t-77.5 46t-62.5 23q-46 0 -84 -45q-36 -45 -80 -10q-49 36 -22 76z" />
<glyph unicode="&#xf2;" horiz-adv-x="1128" d="M109 399v312q0 202 120 315t334 113q220 0 338.5 -112t118.5 -316v-303q0 -201 -120 -314.5t-337 -113.5q-216 0 -335 111t-119 308zM291 420q0 -148 71.5 -217.5t200.5 -69.5q130 0 202.5 71.5t72.5 219.5v270q0 149 -72 220t-203 71q-126 0 -199 -71.5t-73 -219.5v-274 zM306.5 1554q18.5 29 68.5 29q63 0 90 -41l156 -237q17 -25 4.5 -41.5t-47.5 -16.5q-44 0 -76 37l-189 215q-25 26 -6.5 55z" />
<glyph unicode="&#xf3;" horiz-adv-x="1128" d="M109 399v312q0 202 120 315t334 113q220 0 338.5 -112t118.5 -316v-303q0 -201 -120 -314.5t-337 -113.5q-216 0 -335 111t-119 308zM291 420q0 -148 71.5 -217.5t200.5 -69.5q130 0 202.5 71.5t72.5 219.5v270q0 149 -72 220t-203 71q-126 0 -199 -71.5t-73 -219.5v-274 zM536 1263.5q-13 16.5 3 41.5l157 239q23 37 95 37q44 0 60 -24t-9 -56l-185 -217q-32 -37 -75 -37q-33 0 -46 16.5z" />
<glyph unicode="&#xf4;" horiz-adv-x="1128" d="M109 399v312q0 202 120 315t334 113q220 0 338.5 -112t118.5 -316v-303q0 -201 -120 -314.5t-337 -113.5q-216 0 -335 111t-119 308zM291 420q0 -148 71.5 -217.5t200.5 -69.5q130 0 202.5 71.5t72.5 219.5v270q0 149 -72 220t-203 71q-126 0 -199 -71.5t-73 -219.5v-274 zM335 1277.5q-13 22.5 7 47.5l141 205q23 35 90 35q68 0 91 -35l137 -205q20 -25 7 -47.5t-58 -22.5q-48 0 -64 27l-115 176l-114 -176q-16 -27 -64 -27q-45 0 -58 22.5z" />
<glyph unicode="&#xf5;" horiz-adv-x="1128" d="M109 399v312q0 202 120 315t334 113q220 0 338.5 -112t118.5 -316v-303q0 -201 -120 -314.5t-337 -113.5q-216 0 -335 111t-119 308zM268 1399q29 44 77 77t110 33q43 0 87 -23t81.5 -46t62.5 -23q46 0 84 45q37 46 80 11q49 -36 22 -76q-29 -44 -76.5 -77.5 t-109.5 -33.5q-48 0 -91 23t-77.5 46t-62.5 23q-46 0 -84 -45q-36 -45 -80 -10q-49 37 -23 76zM291 420q0 -148 71.5 -217.5t200.5 -69.5q130 0 202.5 71.5t72.5 219.5v270q0 149 -72 220t-203 71q-126 0 -199 -71.5t-73 -219.5v-274z" />
<glyph unicode="&#xf6;" horiz-adv-x="1128" d="M109 399v312q0 202 120 315t334 113q220 0 338.5 -112t118.5 -316v-303q0 -201 -120 -314.5t-337 -113.5q-216 0 -335 111t-119 308zM291 420q0 -148 71.5 -217.5t200.5 -69.5q130 0 202.5 71.5t72.5 219.5v270q0 149 -72 220t-203 71q-126 0 -199 -71.5t-73 -219.5v-274 zM309 1337v111q0 39 20.5 55.5t63.5 16.5q82 0 82 -72v-111q0 -73 -82 -73q-43 0 -63.5 16.5t-20.5 56.5zM680 1337v111q0 39 20.5 55.5t63.5 16.5q82 0 82 -72v-111q0 -73 -82 -73q-43 0 -63.5 16.5t-20.5 56.5z" />
<glyph unicode="&#xf7;" d="M102 633q0 78 66 78h938q63 0 63 -78q0 -39 -14.5 -57.5t-48.5 -18.5h-938q-36 0 -51 18.5t-15 57.5zM551 178v144q0 42 22 59.5t68 17.5q88 0 88 -77v-144q0 -42 -22 -60t-66 -18q-46 0 -68 17.5t-22 60.5zM551 948v144q0 42 22 59.5t68 17.5q88 0 88 -77v-144 q0 -42 -22 -60t-66 -18q-46 0 -68 17.5t-22 60.5z" />
<glyph unicode="&#xf8;" horiz-adv-x="1128" d="M109 399v312q0 202 120 315t334 113q140 0 240 -47l31 53q11 19 19 29t24 18t38 8q40 0 56.5 -22.5t-0.5 -53.5l-62 -106q111 -114 111 -307v-303q0 -201 -120 -314.5t-337 -113.5q-126 0 -219 38l-39 -69q-28 -55 -84 -55q-40 0 -55 22.5t2 54.5l65 115 q-124 109 -124 313zM291 420q0 -105 35 -170l395 698q-64 37 -158 37q-126 0 -199 -71.5t-73 -219.5v-274zM424 160q59 -27 139 -27q130 0 202.5 71.5t72.5 219.5v270q0 81 -27 150z" />
<glyph unicode="&#xf9;" horiz-adv-x="1144" d="M135 311v736q0 43 23 61t69 18q47 0 69.5 -18t22.5 -61v-705q0 -102 47 -155.5t130 -53.5q87 0 170 45t147 129v740q0 43 23 61t69 18q47 0 69.5 -18t22.5 -61v-979q0 -42 -21.5 -60t-66.5 -18q-92 0 -92 78v82q-166 -170 -368 -170q-149 0 -231.5 86.5t-82.5 244.5z M296.5 1554q18.5 29 68.5 29q63 0 90 -41l155 -237q17 -25 4.5 -41.5t-47.5 -16.5q-43 0 -75 37l-189 215q-25 26 -6.5 55z" />
<glyph unicode="&#xfa;" horiz-adv-x="1144" d="M135 311v736q0 43 23 61t69 18q47 0 69.5 -18t22.5 -61v-705q0 -102 47 -155.5t130 -53.5q87 0 170 45t147 129v740q0 43 23 61t69 18q47 0 69.5 -18t22.5 -61v-979q0 -42 -21.5 -60t-66.5 -18q-92 0 -92 78v82q-166 -170 -368 -170q-149 0 -231.5 86.5t-82.5 244.5z M523 1263.5q-13 16.5 3 41.5l158 239q23 37 94 37q44 0 60 -24t-9 -56l-184 -217q-32 -37 -76 -37q-33 0 -46 16.5z" />
<glyph unicode="&#xfb;" horiz-adv-x="1144" d="M135 311v736q0 43 23 61t69 18q47 0 69.5 -18t22.5 -61v-705q0 -102 47 -155.5t130 -53.5q87 0 170 45t147 129v740q0 43 23 61t69 18q47 0 69.5 -18t22.5 -61v-979q0 -42 -21.5 -60t-66.5 -18q-92 0 -92 78v82q-166 -170 -368 -170q-149 0 -231.5 86.5t-82.5 244.5z M339 1277.5q-13 22.5 7 47.5l141 205q23 35 91 35q67 0 90 -35l137 -205q20 -25 7 -47.5t-58 -22.5q-48 0 -64 27l-115 176l-114 -176q-16 -27 -64 -27q-45 0 -58 22.5z" />
<glyph unicode="&#xfc;" horiz-adv-x="1144" d="M135 311v736q0 43 23 61t69 18q47 0 69.5 -18t22.5 -61v-705q0 -102 47 -155.5t130 -53.5q87 0 170 45t147 129v740q0 43 23 61t69 18q47 0 69.5 -18t22.5 -61v-979q0 -42 -21.5 -60t-66.5 -18q-92 0 -92 78v82q-166 -170 -368 -170q-149 0 -231.5 86.5t-82.5 244.5z M301 1337v111q0 39 20.5 55.5t63.5 16.5q82 0 82 -72v-111q0 -73 -82 -73q-43 0 -63.5 16.5t-20.5 56.5zM672 1337v111q0 39 20.5 55.5t63.5 16.5q82 0 82 -72v-111q0 -73 -82 -73q-43 0 -63.5 16.5t-20.5 56.5z" />
<glyph unicode="&#xfd;" horiz-adv-x="935" d="M18 1026q-17 47 4.5 73.5t75.5 26.5q85 0 107 -71l272 -830l266 832q21 69 103 69q50 0 71.5 -25.5t4.5 -70.5l-377 -1057q-95 -268 -291 -395q-34 -21 -60 -14.5t-53 41.5q-50 74 9 112q78 50 134 120t95 177zM429 1263.5q-13 16.5 3 41.5l158 239q23 37 94 37 q44 0 60 -24t-9 -56l-184 -217q-32 -37 -76 -37q-33 0 -46 16.5z" />
<glyph unicode="&#xfe;" horiz-adv-x="1161" d="M147 -354v1820q0 43 23 61.5t70 18.5q46 0 69 -18.5t23 -61.5v-528q21 33 50 65t71.5 64.5t100 52t120.5 19.5q188 0 283.5 -116t95.5 -308v-299q0 -204 -112.5 -320t-278.5 -116q-222 0 -330 155v-489q0 -43 -23 -61.5t-69 -18.5q-47 0 -70 18.5t-23 61.5zM332 406 q0 -120 74 -196.5t202 -76.5q122 0 192 73t70 226v254q0 297 -239 297q-123 0 -211 -93.5t-88 -236.5v-247z" />
<glyph unicode="&#xff;" horiz-adv-x="935" d="M18 1026q-17 47 4.5 73.5t75.5 26.5q85 0 107 -71l272 -830l266 832q21 69 103 69q50 0 71.5 -25.5t4.5 -70.5l-377 -1057q-95 -268 -291 -395q-34 -21 -60 -14.5t-53 41.5q-50 74 9 112q78 50 134 120t95 177zM211 1337v111q0 39 20.5 55.5t63.5 16.5q82 0 82 -72v-111 q0 -73 -82 -73q-43 0 -63.5 16.5t-20.5 56.5zM582 1337v111q0 39 20.5 55.5t63.5 16.5q82 0 82 -72v-111q0 -73 -82 -73q-43 0 -63.5 16.5t-20.5 56.5z" />
<glyph unicode="&#x152;" horiz-adv-x="1923" d="M141 461v569q0 224 143.5 356t397.5 132q114 0 205 -40t147 -108v21q0 58 34 82t108 24h587q39 0 55.5 -20t16.5 -62q0 -43 -16.5 -63.5t-55.5 -20.5h-540v-483h487q39 0 55.5 -20t16.5 -62q0 -43 -16.5 -63.5t-55.5 -20.5h-487v-516h538q39 0 55.5 -20t16.5 -62 q0 -43 -16.5 -63.5t-55.5 -20.5h-585q-74 0 -108 24t-34 82v29q-113 -158 -352 -158q-255 0 -398 129t-143 355zM332 479q0 -157 91.5 -245.5t258.5 -88.5t259.5 88.5t92.5 243.5v547q-5 153 -96.5 239.5t-255.5 86.5q-167 0 -258.5 -88.5t-91.5 -245.5v-537z" />
<glyph unicode="&#x153;" horiz-adv-x="1812" d="M113 395v316q0 193 126 310.5t332 117.5q240 0 373 -162q59 75 146.5 119t193.5 45q206 0 321 -115t115 -342v-88q0 -104 -104 -104h-584v-80q0 -130 65 -204.5t197 -74.5q175 0 246 123q22 36 45 43.5t60 -10.5q83 -36 45 -105q-110 -204 -396 -204q-238 0 -352 155 q-56 -76 -152 -115.5t-219 -39.5q-217 0 -337.5 109.5t-120.5 305.5zM295 412q0 -145 73.5 -212t202.5 -67q279 0 279 289v278q-6 141 -72 213t-205 72q-134 0 -206 -72.5t-72 -216.5v-284zM1032 629h510v82q0 128 -64.5 202t-193.5 74q-115 0 -183.5 -73t-68.5 -197v-88z " />
<glyph unicode="&#x178;" horiz-adv-x="1120" d="M22.5 1447q2.5 23 27.5 38.5t67 15.5q70 0 96 -51l350 -664l350 666q26 51 95 51q62 0 84 -32t-2 -70l-435 -789v-542q0 -44 -24 -63t-72 -19q-49 0 -71.5 18.5t-22.5 63.5v540l-432 787q-13 27 -10.5 50zM295 1751v111q0 39 20.5 55t63.5 16q82 0 82 -71v-111 q0 -74 -82 -74q-43 0 -63.5 17t-20.5 57zM666 1751v111q0 39 20.5 55t63.5 16q81 0 81 -71v-111q0 -74 -81 -74q-43 0 -63.5 17t-20.5 57z" />
<glyph unicode="&#x2c6;" horiz-adv-x="788" d="M159 1277.5q-13 22.5 7 47.5l141 205q23 35 90 35t90 -35l138 -205q20 -25 6.5 -47.5t-58.5 -22.5q-47 0 -63 27l-115 176l-114 -176q-16 -27 -64 -27q-45 0 -58 22.5z" />
<glyph unicode="&#x2dc;" horiz-adv-x="927" d="M164 1399q29 44 76.5 77t109.5 33q43 0 87.5 -23t82 -46t62.5 -23q46 0 84 45q37 45 79 11q49 -37 23 -76q-29 -44 -76.5 -77.5t-109.5 -33.5q-38 0 -74 14.5t-58.5 31.5t-49.5 31.5t-50 14.5q-46 0 -84 -45q-36 -45 -80 -10q-49 36 -22 76z" />
<glyph unicode="&#x2000;" horiz-adv-x="993" />
<glyph unicode="&#x2001;" horiz-adv-x="1987" />
<glyph unicode="&#x2002;" horiz-adv-x="993" />
<glyph unicode="&#x2003;" horiz-adv-x="1987" />
<glyph unicode="&#x2004;" horiz-adv-x="662" />
<glyph unicode="&#x2005;" horiz-adv-x="496" />
<glyph unicode="&#x2006;" horiz-adv-x="331" />
<glyph unicode="&#x2007;" horiz-adv-x="331" />
<glyph unicode="&#x2008;" horiz-adv-x="248" />
<glyph unicode="&#x2009;" horiz-adv-x="397" />
<glyph unicode="&#x200a;" horiz-adv-x="110" />
<glyph unicode="&#x2010;" horiz-adv-x="935" d="M111 614q0 74 63 74h590q61 0 61 -74q0 -38 -14 -55.5t-47 -17.5h-590q-34 0 -48.5 17.5t-14.5 55.5z" />
<glyph unicode="&#x2011;" horiz-adv-x="935" d="M111 614q0 74 63 74h590q61 0 61 -74q0 -38 -14 -55.5t-47 -17.5h-590q-34 0 -48.5 17.5t-14.5 55.5z" />
<glyph unicode="&#x2012;" horiz-adv-x="935" d="M111 614q0 74 63 74h590q61 0 61 -74q0 -38 -14 -55.5t-47 -17.5h-590q-34 0 -48.5 17.5t-14.5 55.5z" />
<glyph unicode="&#x2013;" horiz-adv-x="1097" d="M111 614q0 74 63 74h754q61 0 61 -74q0 -38 -14 -55.5t-47 -17.5h-754q-34 0 -48.5 17.5t-14.5 55.5z" />
<glyph unicode="&#x2014;" horiz-adv-x="2123" d="M111 614q0 74 63 74h1778q61 0 61 -74q0 -38 -14 -55.5t-47 -17.5h-1778q-34 0 -48.5 17.5t-14.5 55.5z" />
<glyph unicode="&#x2018;" horiz-adv-x="468" d="M127 1087q0 133 51.5 254.5t145.5 194.5q39 32 75 -10q19 -24 19 -41t-21 -37q-60 -54 -78 -130.5t-16 -230.5q0 -42 -21.5 -59.5t-66.5 -17.5q-88 0 -88 77z" />
<glyph unicode="&#x2019;" horiz-adv-x="487" d="M67 1055q0 17 21 37q60 54 78 130t16 230q0 42 21.5 60t66.5 18q88 0 88 -78q0 -133 -51 -254t-145 -194q-40 -32 -76 10q-19 24 -19 41z" />
<glyph unicode="&#x201a;" horiz-adv-x="417" d="M34 -184q0 17 21 37q60 54 78.5 130t16.5 230q0 42 21.5 60t66.5 18q88 0 88 -78q0 -133 -51.5 -254.5t-145.5 -194.5q-39 -32 -76 11q-19 24 -19 41z" />
<glyph unicode="&#x201c;" horiz-adv-x="831" d="M127 1087q0 133 51.5 254.5t145.5 194.5q39 32 75 -10q19 -24 19 -41t-21 -37q-60 -54 -78 -130.5t-16 -230.5q0 -42 -21.5 -59.5t-66.5 -17.5q-88 0 -88 77zM492 1087q0 133 51 254.5t145 194.5q40 32 76 -10q19 -24 19 -41t-21 -37q-60 -54 -78 -130.5t-16 -230.5 q0 -42 -21.5 -59.5t-66.5 -17.5q-88 0 -88 77z" />
<glyph unicode="&#x201d;" horiz-adv-x="843" d="M59 1055q0 17 21 37q60 54 78 130t16 230q0 42 21.5 60t66.5 18q88 0 88 -78q0 -133 -51 -254t-145 -194q-40 -32 -76 10q-19 24 -19 41zM423 1055q0 17 21 37q60 54 78.5 130t16.5 230q0 42 21.5 60t66.5 18q88 0 88 -78q0 -133 -51.5 -254t-145.5 -194q-40 -32 -76 10 q-19 24 -19 41z" />
<glyph unicode="&#x201e;" horiz-adv-x="782" d="M34 -184q0 17 21 37q60 54 78.5 130t16.5 230q0 42 21.5 60t66.5 18q88 0 88 -78q0 -133 -51.5 -254.5t-145.5 -194.5q-39 -32 -76 11q-19 24 -19 41zM399 -184q0 17 21 37q60 54 78 130t16 230q0 42 21.5 60t66.5 18q88 0 88 -78q0 -133 -51 -254.5t-145 -194.5 q-39 -32 -76 11q-19 24 -19 41z" />
<glyph unicode="&#x2022;" horiz-adv-x="802" d="M131 651q0 113 79 193t191 80q117 0 194 -78t77 -195q0 -111 -79.5 -190.5t-191.5 -79.5q-117 0 -193.5 77t-76.5 193z" />
<glyph unicode="&#x2026;" horiz-adv-x="1351" d="M133 68v143q0 42 22 60t68 18q88 0 88 -78v-143q0 -42 -22 -60t-66 -18q-46 0 -68 17.5t-22 60.5zM586 68v143q0 42 22 60t68 18q88 0 88 -78v-143q0 -42 -22 -60t-66 -18q-46 0 -68 17.5t-22 60.5zM1040 68v143q0 42 22 60t68 18q89 0 89 -78v-143q0 -78 -89 -78 q-46 0 -68 17.5t-22 60.5z" />
<glyph unicode="&#x202f;" horiz-adv-x="397" />
<glyph unicode="&#x2039;" horiz-adv-x="663" d="M127 602q0 13 2.5 25t9 24.5t10 18.5t13.5 20t12 17l227 327q39 58 105 13q66 -44 26 -101l-237 -344l237 -344q40 -57 -26 -100q-67 -45 -105 12l-227 328q-1 1 -8.5 11.5t-9 13t-7.5 12t-7.5 13t-5.5 12t-5 14t-2.5 13t-1.5 15.5z" />
<glyph unicode="&#x203a;" horiz-adv-x="663" d="M147 258l238 344l-238 344q-40 57 27 101q66 45 105 -13l227 -327q2 -3 12 -17t13.5 -20t10 -18.5t9 -24.5t2.5 -25q0 -8 -1.5 -15.5t-2.5 -13t-5 -14t-5.5 -12t-7.5 -13t-7.5 -12t-9 -13t-8.5 -11.5l-227 -328q-38 -57 -105 -12q-67 44 -27 100z" />
<glyph unicode="&#x205f;" horiz-adv-x="496" />
<glyph unicode="&#x20ac;" d="M66 610q0 74 63 74h117v143h-117q-34 0 -48.5 17t-14.5 55q0 74 63 74h117v55q0 225 134 357.5t359 132.5q186 0 309.5 -80t174.5 -221q28 -76 -62 -103q-41 -15 -68.5 -5t-41.5 52q-32 91 -116 143t-202 52q-297 0 -297 -338v-45h367q59 0 59 -74q0 -37 -13.5 -54.5 t-45.5 -17.5h-367v-143h367q59 0 59 -74q0 -37 -13.5 -54t-45.5 -17h-367v-58q0 -346 297 -346q238 0 314 201q17 43 43 52.5t67 -5.5q46 -14 61.5 -38t0.5 -64q-21 -58 -59 -110t-94 -96.5t-137 -71t-175 -26.5q-254 0 -381 128.5t-127 361.5v72h-117q-35 0 -49 16.5 t-14 54.5z" />
<glyph unicode="&#x2122;" horiz-adv-x="1099" d="M27 1452q0 23 7.5 33t28.5 10h371q37 0 37 -43t-37 -43h-137v-463q0 -41 -49 -41q-26 0 -37.5 9t-11.5 32v463h-136q-21 0 -28.5 10t-7.5 33zM528 944v510q0 26 17 36.5t53 10.5q58 0 70 -41l120 -418l121 418q12 41 74 41q35 0 50.5 -10.5t15.5 -36.5v-510 q0 -39 -48 -39q-47 0 -47 39v399l-125 -413q-8 -25 -43 -25q-34 0 -41 25l-122 405v-391q0 -39 -50 -39q-24 0 -34.5 9t-10.5 30z" />
<glyph unicode="&#xe000;" horiz-adv-x="1126" d="M0 0v1126h1126v-1126h-1126z" />
</font>
</defs>
</svg>
